<?xml version="1.0" encoding="utf-8"?>
<!-- Generator: Adobe Illustrator 21.0.0, SVG Export Plug-In . SVG Version: 6.00 Build 0)  -->
<svg version="1.1" id="Layer_1" xmlns="http://www.w3.org/2000/svg" xmlns:xlink="http://www.w3.org/1999/xlink" x="0px" y="0px"
	 viewBox="0 0 100 80" style="enable-background:new 0 0 100 80;" xml:space="preserve">
<style type="text/css">
	.st0{fill:#E2CA84;}
</style>
<g>
	<path class="st0" d="M41.5,0.3c0.6,0.3,1.3,0.6,1.9,1c1,0.6,1.8,1.5,2.4,2.5c0.7,1.2,1,2.4,0.9,3.8c0,0.7,0,1.3,0.1,2
		c0,0.3-0.1,0.6-0.1,0.9c0,0.5,0.2,0.7,0.7,0.7c4.8,0,9.7,0,14.5,0c1,0,2.1,0.2,2.9,0.8c0.9,0.6,1.4,1.5,1.6,2.6
		c0.1,0.4,0.1,0.8,0.1,1.3c0,10.1,0,20.3,0,30.4c0,0.5-0.1,0.9-0.6,1.1c-0.4,0.2-0.9,0.2-1.3,0s-0.5-0.7-0.5-1.1c0-0.7,0-1.5,0-2.2
		c0-9.4,0-18.7,0-28.1c0-0.8-0.2-1.6-1-2c-0.3-0.2-0.6-0.3-0.9-0.3c-15.1,0-30.2,0-45.3,0c-0.8,0-1.5,0.2-1.9,1
		c-0.2,0.4-0.3,0.8-0.3,1.2c0,19.9,0,39.9,0,59.8c0,0.7,0.1,1.5,0.9,1.9c0.4,0.2,0.9,0.3,1.4,0.3c14.5,0,29,0,43.5,0
		c0.5,0,1.1,0,1.6,0c1-0.1,1.7-0.4,2-1.3c0.1-0.4,0.2-0.8,0.2-1.2c0-7.8,0-15.6,0-23.3c0-0.3,0.1-0.6,0.2-0.9
		c0.2-0.4,0.9-0.6,1.4-0.4c0.4,0.1,0.8,0.6,0.8,1.2c0,2.5,0,4.9,0,7.4c0,5.6,0,11.2,0,16.8c0,2.2-1.4,4-3.7,4.3
		c-0.3,0-0.6,0.1-0.9,0.1c-15.1,0-30.2,0-45.4,0c-1.1,0-2.1-0.4-3-1.1C13,78.8,12.6,78,12.5,77c0-0.3-0.1-0.6-0.1-0.9
		c0-20.1,0-40.2,0-60.3c0-2.1,1.3-3.8,3.5-4.2c0.5-0.1,1.1-0.1,1.6-0.1c4.8,0,9.5,0,14.3,0c0.1,0,0.3,0,0.5,0c0-0.3,0-0.5,0-0.8
		c0-0.6,0-1.2,0-1.9c0.1-1.3,0-2.7,0.5-3.9s1.2-2.2,2.3-3c0.7-0.5,1.5-0.9,2.3-1.2c0.1,0,0.1-0.1,0.2-0.1
		C38.9,0.2,40.2,0.2,41.5,0.3z M44.3,11c0-1.4,0-2.7,0-4c0-0.4-0.1-0.7-0.2-1.1c-0.2-0.9-0.7-1.7-1.5-2.3c-1.2-1-2.6-1.4-4.1-1.1
		c-2.4,0.5-3.7,2.4-3.7,4.8c0,1,0,2.1,0,3.1c0,0.5,0.1,0.6,0.6,0.6c2.8,0,5.5,0,8.3,0C43.9,11.1,44.1,11.1,44.3,11z"/>
	<path class="st0" d="M19.9,18.6c0,0.2,0,0.3,0,0.4c0,4.1,0,8.2,0,12.4c0,0.4,0,0.7-0.1,1.1c-0.2,0.6-0.7,0.9-1.3,0.6
		c-0.3-0.1-0.6-0.3-0.8-0.6c-0.1-0.1-0.2-0.3-0.2-0.4c0-4.9,0-9.8,0-14.6c0-0.9,0.3-1.2,1.3-1.3c0.8-0.1,1.6,0,2.5,0c13,0,26,0,39,0
		c0.7,0,1.2,0.3,1.3,0.9c0.1,0.3,0.1,0.6,0.1,0.8c0,18.5,0,37,0,55.5c0,0.3,0,0.6-0.1,0.8c-0.1,0.6-0.5,0.9-1.2,0.9h-0.1
		c-13.8,0-27.5,0-41.3,0c-0.6,0-1.1-0.1-1.3-0.7c-0.1-0.2-0.1-0.4-0.1-0.6c0-12.1,0-24.2,0-36.3c0-0.2,0.1-0.5,0.3-0.6
		c0.3-0.2,0.6-0.5,0.9-0.5c0.6-0.1,1.3,0.5,1.3,1.2c0,0.1,0,0.2,0,0.3c0,11.4,0,22.9,0,34.3c0,0.1,0,0.3,0,0.5c13.1,0,26.1,0,39.2,0
		c0-0.1,0-0.2,0-0.4c0-17.7,0-35.3,0-53c0-0.6-0.2-0.8-0.7-0.8c-12.7,0-25.5,0-38.2,0C20.1,18.6,20,18.6,19.9,18.6z"/>
	<path class="st0" d="M80.3,22.7c-0.8,0-1.5,0-2.3,0c0,0.1,0,0.3,0,0.4c0,14.7,0,29.4,0,44.1c0,0.5-0.1,1-0.5,1.3
		c-0.6,0.5-1.7,0.1-1.8-0.7c0-0.3-0.1-0.5-0.1-0.8c0-14.6,0-29.3,0-43.9c0-0.1,0-0.3,0-0.5c-0.8,0-1.5,0-2.3,0c0,0.1,0,0.3,0,0.4
		c0,14.4,0,28.9,0,43.3c0,0.5,0.2,0.9,0.5,1.3c0.7,0.8,1.3,1.6,2,2.5c0.3,0.4,0.6,0.8,1,1.2c0.8-1,1.6-1.9,2.4-2.9
		c0.3-0.4,0.7-0.8,0.9-1.2c0.1-0.2,0.2-0.5,0.2-0.7c0-11.2,0-22.3,0-33.5c0-0.5,0.1-1,0.6-1.3c0.4-0.3,0.9-0.2,1.3,0s0.6,0.6,0.6,1
		c0,1.4,0,2.8,0,4.2c0,10,0,19.9,0,29.9c0,0.8-0.2,1.4-0.7,2c-1.1,1.3-2.2,2.7-3.3,4c-0.3,0.4-0.7,0.9-1.1,1.3
		c-0.5,0.5-1.2,0.6-1.7,0c-0.7-0.8-1.3-1.5-2-2.3c-0.6-0.8-1.2-1.5-1.9-2.3c-0.4-0.5-0.7-0.9-1-1.4c-0.2-0.4-0.3-0.8-0.3-1.3
		c0-1.2,0-2.5,0-3.7c0-16.1,0-32.2,0-48.3c0-1,0.2-2,1.1-2.7c0.6-0.5,1.2-0.8,2-0.9c0.4-0.1,0.8-0.1,1.2-0.1c1.3,0,2.6,0,4,0
		c1,0,2,0.3,2.7,1.1c0.6,0.6,0.9,1.4,0.9,2.3c0,4.2,0,8.5,0,12.7c0,0.7-0.4,1.3-1.1,1.3s-1.3-0.6-1.3-1.3c0-1.4,0-2.7,0-4.1
		C80.3,22.9,80.3,22.8,80.3,22.7z M80.3,20.1c0-1.8,0-3.6,0-5.3c0-0.3-0.1-0.6-0.2-0.8c-0.2-0.3-0.6-0.4-1-0.4c-1.5,0-3,0-4.5,0
		c-0.9,0-1.3,0.5-1.3,1.3c0,1.5,0,3,0,4.5c0,0.5,0.2,0.7,0.7,0.7c1.6,0,3.1,0,4.7,0C79.2,20.1,79.7,20.1,80.3,20.1z"/>
	<path class="st0" d="M27.7,31c1.1,0,2.1,0,3.2,0c0.5,0,1,0.2,1.2,0.7c0.1,0.2,0.1,0.5,0.1,0.8c0,1.9,0,3.9,0,5.8
		c0,0.3-0.1,0.6-0.2,0.9c-0.2,0.5-0.7,0.6-1.2,0.6c-2.1,0-4.1,0-6.2,0c-0.9,0-1.4-0.5-1.4-1.4c0-2,0-4,0-6c0-0.9,0.5-1.3,1.4-1.4
		C25.7,31,26.7,31,27.7,31z M29.7,33.5c-1.2,0-2.4,0-3.5,0c-0.3,0-0.4,0.2-0.4,0.5c0,0.9,0,1.8,0,2.7c0,0.4,0.2,0.6,0.6,0.6
		c0.9,0,1.7,0,2.6,0c0.3,0,0.5,0,0.8,0C29.7,36.1,29.7,34.8,29.7,33.5z"/>
	<path class="st0" d="M27.7,67.9c-1,0-2,0-3,0c-0.2,0-0.5-0.1-0.7-0.1c-0.5-0.2-0.7-0.6-0.7-1.1c0-2.1,0-4.2,0-6.3
		c0-0.8,0.4-1.2,1.3-1.2c0.4,0,0.9,0,1.3,0c0.5,0,1.1-0.1,1.6-0.1c1.2,0,2.4,0,3.6,0.1c0.7,0,1.1,0.5,1.1,1.3c0,2,0,4.1,0,6.1
		c0,0.9-0.4,1.3-1.4,1.3C29.8,68,28.7,67.9,27.7,67.9z M29.7,65.5c0-1.3,0-2.6,0-3.8c-1.1,0-2.2,0-3.4,0c-0.3,0-0.6,0.3-0.6,0.6
		c0,0.4,0,0.8,0,1.3c0,0.6,0,1.3,0,1.9C27.1,65.5,28.4,65.5,29.7,65.5z"/>
	<path class="st0" d="M27.7,53.9c-1.1,0-2.1,0-3.2,0c-0.8,0-1.3-0.4-1.3-1.2c0-2.1,0-4.2,0-6.2c0-0.8,0.3-1.2,1.3-1.2
		c2.1,0,4.2,0,6.3,0c0.9,0,1.4,0.4,1.4,1.3c0,2,0,4.1,0,6.1c0,0.8-0.3,1.3-1.4,1.3C29.8,53.9,28.8,53.9,27.7,53.9z M25.7,47.6
		c0,1.1,0,2.2,0,3.4c0,0.1,0.2,0.3,0.4,0.4c0.2,0.1,0.4,0.1,0.6,0.1c0.7,0,1.5,0,2.2,0c0.3,0,0.5,0,0.8,0c0-1.3,0-2.6,0-3.8
		C28.4,47.6,27.1,47.6,25.7,47.6z"/>
	<path class="st0" d="M39.5,25.3c-3.5,0-7.1,0-10.6,0c-0.5,0-1-0.1-1.2-0.7c-0.2-0.8-0.1-1.5,0.9-1.7c0.3-0.1,0.6-0.1,0.9-0.1
		c6.8,0,13.5,0,20.3,0c0.5,0,1,0,1.3,0.4c0.6,0.6,0.3,1.8-0.5,2c-0.2,0.1-0.4,0.1-0.7,0.1C46.4,25.3,43,25.3,39.5,25.3z"/>
	<path class="st0" d="M44.9,45.3c3.1,0,6.2,0,9.3,0c0.5,0,0.9,0.1,1.2,0.4c0.3,0.4,0.4,0.9,0.2,1.3c-0.2,0.4-0.5,0.6-1,0.7
		c-0.4,0-0.8,0.1-1.2,0.1c-5.9,0-11.8,0-17.7,0c-0.3,0-0.5,0-0.8-0.1c-0.8-0.2-1.2-1.3-0.6-2c0.3-0.4,0.8-0.4,1.3-0.4
		C38.7,45.3,41.8,45.3,44.9,45.3z"/>
	<path class="st0" d="M44.9,33.7c-3.2,0-6.3,0-9.5,0c-1,0-1.6-0.8-1.3-1.7c0.1-0.4,0.5-0.6,0.9-0.7h0.1c6.4,0,12.8,0,19.3-0.1
		c0.5,0,0.8,0.4,1.1,0.7s0.3,0.7,0.1,1c-0.3,0.5-0.7,0.7-1.3,0.7C51.2,33.6,48.1,33.6,44.9,33.7C45,33.7,44.9,33.7,44.9,33.7z"/>
	<path class="st0" d="M44.9,61.8c-3.2,0-6.4,0-9.6,0c-0.5,0-0.9-0.2-1.1-0.6c-0.2-0.5-0.2-1,0.1-1.3c0.2-0.3,0.6-0.4,1.1-0.4
		c4.9,0,9.8,0,14.8,0c1.4,0,2.9,0,4.3,0c0.7,0,1.1,0.3,1.2,0.8c0.2,0.8-0.2,1.6-1.2,1.6C51.3,61.8,48.1,61.8,44.9,61.8z"/>
	<path class="st0" d="M41,37.4c1.8,0,3.6,0,5.4,0c0.5,0,1,0.1,1.3,0.6c0.4,0.8,0.1,1.6-0.9,1.8c-0.5,0.1-1,0.1-1.5,0.1
		c-3.2,0-6.5,0-9.7,0c-0.3,0-0.7-0.1-1-0.3c-0.5-0.2-0.6-0.7-0.5-1.1c0-0.4,0.3-0.8,0.7-0.9c0.3-0.1,0.6-0.2,0.9-0.2
		C37.4,37.4,39.2,37.4,41,37.4z"/>
	<path class="st0" d="M40.9,67.9c-1.8,0-3.6,0-5.5,0c-0.3,0-0.6-0.1-0.9-0.2c-0.4-0.1-0.6-0.8-0.5-1.3s0.6-0.9,1-0.9
		c1.5,0,3-0.1,4.5-0.1c1.1,0,2.2,0,3.4,0c1.3,0,2.6,0,3.8,0.1c0.5,0,1,0.5,1,0.9c0.1,0.9-0.2,1.2-0.9,1.4c-0.3,0.1-0.6,0.1-0.9,0.1
		C44.3,68,42.6,67.9,40.9,67.9z"/>
	<path class="st0" d="M41,51.5c1.9,0,3.7,0,5.6,0c1,0,1.5,0.8,1.2,1.7c-0.1,0.4-0.7,0.7-1.2,0.7c-2.3,0-4.7,0-7,0
		c-1.4,0-2.7,0-4.1,0c-0.6,0-1.1-0.3-1.2-0.7c-0.2-0.9,0.1-1.6,1.2-1.7C37.2,51.4,39.1,51.5,41,51.5z"/>
	<path class="st0" d="M37.3,6.8c-0.1-1.3,1-2.3,2.2-2.2c1.3,0,2.2,1,2.2,2.2c0,1.3-1,2.3-2.3,2.3C38.3,9,37.2,8.1,37.3,6.8z"/>
</g>
</svg>
