<?xml version="1.0" encoding="utf-8"?>
<!-- Generator: Adobe Illustrator 21.0.0, SVG Export Plug-In . SVG Version: 6.00 Build 0)  -->
<svg version="1.1" id="Layer_1" xmlns="http://www.w3.org/2000/svg" xmlns:xlink="http://www.w3.org/1999/xlink" x="0px" y="0px"
	 viewBox="0 0 100 80" style="enable-background:new 0 0 100 80;" xml:space="preserve">
<style type="text/css">
	.st0{fill:#FFFFFF;}
	.st1{fill:#E2CA84;}
</style>
<g>
	<path class="st0" d="M35.5,58.4c0-0.5,0-1,0-1.5c0.3,0,0.4,0.3,0.4,0.5C36.1,57.9,35.9,58.2,35.5,58.4z"/>
</g>
<g>
	<path class="st1" d="M52.2,81c-1.2-0.2-2.1-1-3-1.8c-0.1-0.1-0.3-0.2-0.5-0.1c-2.7,1.5-5.8-0.1-6-3.2v-0.1c-0.2,0-0.5-0.1-0.7-0.1
		c-1.7-0.4-2.9-1.7-3.1-3.5c0-0.2,0-0.3-0.3-0.3c-2-0.2-3.3-1.5-3.6-3.5c0-0.1,0-0.2,0-0.3c-0.9-0.1-1.6-0.3-2.3-0.9
		c-0.9-0.7-1.4-1.7-1.5-2.8c0-0.1-0.1-0.2-0.1-0.3c-1.2-0.8-2.5-1.5-3.8-2.3c-0.1,0.4-0.2,0.7-0.3,1.1c-1.2-0.1-2.3,0.1-3.5-0.3
		c-3.8-1.3-7.6-2.5-11.4-3.8c-0.2-0.1-0.3-0.2-0.3-0.4c0-8.7,0-17.4,0-26.1c0-0.1,0-0.2,0-0.3c0.1,0,0.2,0,0.3,0c1.2,0,2.4,0,3.6,0
		c0.2,0,0.4,0.1,0.6,0.2c2,1.1,3.9,2.3,5.9,3.4c0.2,0.1,0.4,0.1,0.6,0.1c1-0.2,2-0.5,2.9-0.7c0.1,0,0.3-0.1,0.3-0.2
		c0-0.2,0.1-0.4-0.1-0.6c-0.6-0.6-1.3-1.2-1.9-1.9c-1.3-1.6-1.8-3.4-1.8-5.5c0-1.1,0-2.3,0.1-3.4c0.3-3.9,3.4-7.3,7.2-8
		c0.7-0.1,1.4-0.2,2.1-0.2c0-0.1-0.1-0.2-0.1-0.3c-0.4-0.9-0.7-1.8-1.1-2.6c-0.1-0.2-0.1-0.3,0.1-0.5c2.1-2.1,4.3-4.3,6.4-6.4
		c0.2-0.2,0.3-0.2,0.5-0.1c1.2,0.8,2.4,1.5,3.5,2.3c0.2,0.1,0.3,0.1,0.5,0c1.4-0.8,2.8-1.4,4.3-1.8c0.2-0.1,0.3-0.2,0.4-0.4
		C46.4,3.9,46.7,2.5,47,1c3.3,0,6.6,0,9.8,0c0.3,1.3,0.6,2.7,0.8,4c0.1,0.5,0.3,0.7,0.8,0.9c1.4,0.4,2.7,1,3.9,1.6
		c0.2,0.1,0.4,0.1,0.6,0C63.8,6.8,65,6,66.1,5.3c0.1-0.1,0.2-0.1,0.3-0.2c0.1,0.1,0.2,0.2,0.3,0.2c2.1,2.1,4.2,4.2,6.3,6.3
		c0.2,0.2,0.2,0.3,0.1,0.6c-0.4,0.9-0.7,1.7-1.1,2.6c0,0.1,0,0.2-0.1,0.4c1.1-0.1,2.1,0.1,3.1,0.4c3.5,1.3,5.6,3.8,6.2,7.4
		c0.3,1.9,0.3,3.9-0.1,5.9c-0.5,2.1-1.6,3.8-3.4,5.2c-0.3,0.2-0.3,0.4-0.2,0.7c0,0.1,0.2,0.2,0.3,0.2c1.6,0.4,3.3,0.8,4.9,1.2
		c0.5,0.1,1,0.3,1.5,0.6c0.2,0.1,0.3,0.1,0.5,0c1.3-0.7,2.5-1.3,3.8-2c0.2-0.1,0.4-0.1,0.6-0.1c0.9,0,1.7,0,2.6,0c0,0.2,0,0.3,0,0.4
		c0,6,0,12.1,0,18.1c0,0.3-0.1,0.4-0.3,0.5c-7.5,3.8-15.1,7.5-22.6,11.3c-0.2,0.1-0.3,0.2-0.3,0.4c0,2.2-1.4,3.8-3.6,4.1
		c-0.1,0-0.1,0-0.2,0c0,0.2-0.1,0.5-0.1,0.7c-0.4,1.7-1.8,3-3.5,3.1c-0.2,0-0.3,0-0.3,0.2c-0.2,2.1-1.5,3.4-3.6,3.6
		c-0.1,0-0.1,0-0.2,0c-0.1,0.4-0.1,0.7-0.2,1.1c-0.5,1.5-1.5,2.4-3,2.7c-0.1,0-0.1,0-0.2,0.1C53,81,52.6,81,52.2,81z M89.1,37.3
		c-0.2,0.1-0.3,0.1-0.4,0.2c-7.8,4.1-15.6,8.2-23.4,12.3C65.2,49.9,65,50,64.9,50c-0.8,0-1.6,0-2.3-0.1c-2.6-0.7-5.1-1.4-7.6-2.2
		c-1.5-0.4-2.9-0.3-4.3,0.4c-2.3,1.2-4.6,2.3-7,3.5c-1,0.5-1.3,1.3-1,2.3c0.3,1.1,1.6,1.6,2.6,1c1.6-0.9,3.2-1.9,4.7-2.8
		c2-1.2,4.4-1,6.2,0.6c3.6,3.2,7.2,6.5,10.8,9.8c0.2,0.2,0.4,0.2,0.6,0.1c7-3.5,14-7,21-10.5c0.3-0.1,0.4-0.3,0.4-0.6
		c0-4.5,0-9.1,0-13.6C89.1,37.6,89.1,37.5,89.1,37.3z M49.1,69.4L49.1,69.4c0.1,0,0.1,0,0.2,0c1.4,0.2,2.5,0.9,3.2,2.1
		c0.1,0.1,0.1,0.2,0.2,0.2c0.9,0.7,1.7,1.5,2.6,2.2c0.3,0.2,0.7,0.4,1,0.5c0.7,0.2,1.3-0.1,1.6-0.7s0.1-1.2-0.4-1.7
		c-1.5-1.3-3.1-2.6-4.6-3.8c-0.7-0.6-1.4-1.2-2.1-1.7c0.6-0.7,1.1-1.3,1.6-2c0.1,0.1,0.2,0.1,0.2,0.2c1.4,1.2,2.8,2.3,4.2,3.5
		c0.9,0.7,1.7,1.4,2.6,2.2c0.5,0.4,1.1,0.4,1.7,0.2c0.5-0.2,0.8-0.7,0.7-1.3c0-0.4-0.2-0.7-0.6-1c-2.1-1.8-4.3-3.6-6.4-5.3
		c-0.1-0.1-0.2-0.2-0.3-0.2c0.6-0.7,1.1-1.3,1.6-2c0.3,0.3,0.6,0.5,0.8,0.7c2,1.7,4.1,3.4,6.1,5.1c0.5,0.4,1,0.5,1.6,0.3
		c1.1-0.3,1.3-1.7,0.4-2.5c-3.5-3.2-7.1-6.3-10.6-9.5c-1.1-1-2.2-1.1-3.6-0.3c-1.5,0.9-3,1.8-4.5,2.7c-1.6,0.9-3.5,0.8-4.9-0.3
		c-2.5-2-2.1-6,0.8-7.5c2-1,4-2,6-3c0.1-0.1,0.2-0.1,0.4-0.2c-0.6-0.2-1.2-0.4-1.7-0.6c-2.2-0.7-4.5-0.9-6.7-0.4
		c-2.9,0.6-5.9,1.3-8.8,1.9c-0.2,0-0.3,0.2-0.3,0.4c-0.8,2.9-1.7,5.8-2.5,8.7c-0.3,1.1-0.6,2.1-0.9,3.2c1.3,0.8,2.6,1.6,3.8,2.3
		c0.9-0.9,1.8-1.8,2.7-2.6c0.8-0.7,1.7-1.1,2.7-1.2c2.1-0.1,3.9,1.4,4.1,3.6c0,0.2,0.1,0.3,0.3,0.3c1.7,0.2,3.1,1.4,3.5,3.1
		c0.1,0.2,0.1,0.5,0.1,0.7C47.1,65.6,48.9,67,49.1,69.4z M38.8,42.8C38.9,42.8,38.9,42.8,38.8,42.8c0.2,0,0.3,0,0.3,0
		c2.4-0.6,4.8-0.6,7.2-0.1c1.5,0.4,3,0.9,4.4,1.3c1.2,0.3,2.3,0.9,3.6,1c0.4,0,0.9,0.1,1.3,0.2c2.5,0.7,4.9,1.4,7.4,2.1
		c0.3,0.1,0.7,0.1,1,0.1c0.4,0,0.5-0.1,0.5-0.5c0-1.5,0-2.9,0-4.4c0-2-1.2-3.5-3.1-3.9c-2.3-0.6-4.6-1.2-6.9-1.7
		c-0.3-0.1-0.3-0.2-0.3-0.4c0-1,0-2.1,0-3.1c0-0.5,0.1-0.8,0.6-1c1.8-1,2.9-2.5,3.2-4.5c0.2-1.4,0.2-2.8,0.1-4.1
		c-0.3-3.5-3.5-6.4-7.2-5.9c-2.8,0.4-5.3,2.8-5.5,5.6c-0.1,1.2-0.1,2.5-0.1,3.7c0,0.4,0.1,0.7,0.2,1.1c0.5,2,1.6,3.4,3.4,4.3
		c0.3,0.1,0.4,0.3,0.3,0.6c0,1.1,0,2.2,0,3.3c0,0.3-0.1,0.4-0.4,0.5c-2.3,0.6-4.6,1.1-7,1.7c-0.5,0.1-1,0.3-1.4,0.6
		C39.2,40.2,38.7,41.3,38.8,42.8z M81.4,38.4c-1.2-0.3-2.2-0.6-3.3-0.8c-1.1-0.3-2.1-0.5-3.2-0.8c0-0.1,0-0.2,0-0.4c0-1,0-2,0-3.1
		c0-0.5,0.1-0.8,0.6-1c1.8-1,3-2.6,3.2-4.7c0.1-1.1,0.1-2.2,0.1-3.3c0-1-0.2-1.9-0.6-2.8c-1.3-2.8-4.2-4.3-7-3.7
		c-3.1,0.6-5.2,3.2-5.3,6.4c0,0.9,0,1.7,0,2.6c0,1.6,0.5,2.9,1.5,4.1c0.6,0.7,1.3,1.2,2.1,1.6c0.2,0.1,0.3,0.2,0.3,0.5
		c0,1.1,0,2.3,0,3.4c0,0.1,0,0.2,0,0.4c-1.5,0.4-2.9,0.7-4.4,1.1V38l0.1,0.1c1.1,1.3,1.7,2.8,1.7,4.5c0,1,0,2,0,3c0,0.1,0,0.2,0,0.4
		C71.9,43.4,76.6,41,81.4,38.4z M33.6,36.8c0-0.1,0-0.2,0-0.4c0-1.1,0-2.1,0-3.2c0-0.4,0.1-0.6,0.5-0.8c1.9-1.1,3.1-2.7,3.3-4.8
		c0.1-1.4,0.2-2.9-0.1-4.3c-0.5-3.5-3.7-6-7.2-5.5c-2.7,0.3-5.2,2.7-5.5,5.4c-0.1,1.2-0.1,2.5-0.1,3.7c0,0.7,0.2,1.4,0.4,2
		c0.5,1.5,1.6,2.7,3,3.5c0.4,0.2,0.5,0.4,0.5,0.8c0,1.1,0,2.1,0,3.2c0,0.1,0,0.2,0,0.4c-1,0.2-1.9,0.5-2.9,0.7
		c0.2,0.1,0.3,0.2,0.4,0.3c2,1.2,4.1,2.4,6.1,3.5c0.2,0.1,0.3,0.2,0.3,0.5c0,0.8,0,1.6,0,2.4c1.2-0.3,2.6-0.6,3.9-0.9
		c-0.2-2.1,0.4-3.9,1.8-5.4C36.5,37.6,35.1,37.2,33.6,36.8z M42.6,25.5c0-0.4,0-0.9,0-1.3c0.1-4.7,3.5-8.5,8.1-9
		c5.2-0.5,9.3,3.4,9.9,8c0.2,1.2,0.1,2.5,0.1,3.7c0,1.1-0.2,2.2-0.7,3.3c-0.6,1.5-1.6,2.8-3,3.8c-0.3,0.2-0.2,0.4-0.2,0.6
		c0,0.1,0.2,0.2,0.3,0.2c1.5,0.4,3,0.8,4.5,1.1c0.2,0,0.4,0,0.6,0c1.5-0.4,2.9-0.7,4.4-1.1c0.4-0.1,0.5-0.3,0.4-0.6
		c0-0.1-0.1-0.3-0.3-0.4c-2-1.6-3.3-3.7-3.5-6.2c-0.1-1.2-0.1-2.4-0.1-3.6s0.2-2.4,0.7-3.5c0.2-0.4,0.1-0.6-0.1-1
		c-3.3-5.2-8-7.6-14.1-6.9c-4.7,0.6-8.3,3.1-10.6,7.3c-0.1,0.2-0.1,0.3,0,0.5c0.4,0.9,0.8,1.9,0.8,3c0.1,1.1,0.1,2.2,0.1,3.3
		c0,2-0.6,3.8-1.8,5.3c-0.5,0.7-1.2,1.3-1.9,1.9C36,34.1,36,34.3,36,34.5c0,0.1,0.2,0.2,0.3,0.2c1.5,0.4,3,0.8,4.6,1.1
		c0.2,0,0.3,0,0.5,0c1.5-0.4,3-0.7,4.5-1.1c0.1,0,0.3-0.1,0.4-0.2c0-0.2,0.1-0.5-0.2-0.7c-1.6-1.2-2.7-2.7-3.3-4.6
		C42.6,28.1,42.6,26.8,42.6,25.5z M65.9,17.8c0,0,0.1,0,0.1-0.1c0.8-0.7,1.6-1.3,2.6-1.8c0.1-0.1,0.2-0.2,0.3-0.3
		c0.4-1,0.8-1.9,1.2-2.9c0.1-0.2,0.1-0.4-0.1-0.5c-1.2-1.2-2.5-2.4-3.7-3.7c-0.1-0.1-0.1-0.1-0.2-0.2C65,9,63.9,9.7,62.8,10.5
		c-0.2,0.1-0.3,0.1-0.5,0c-2-1.3-4.2-2.2-6.5-2.7c-0.2-0.1-0.3-0.2-0.4-0.4c-0.2-1.2-0.5-2.4-0.8-3.6c0-0.2-0.1-0.3-0.4-0.3
		c-1.7,0-3.4,0-5.1,0c-0.2,0-0.3,0.1-0.4,0.3c-0.2,1.2-0.5,2.4-0.8,3.6c0,0.2-0.1,0.3-0.4,0.4C45.2,8.3,43,9.2,41,10.5
		c-0.2,0.1-0.3,0.1-0.5,0c-1-0.7-2-1.3-3-2c-0.1-0.1-0.2-0.1-0.3-0.2c-1.3,1.3-2.7,2.7-4,4c-0.1,0.1-0.1,0.3,0,0.4
		c0.4,1,0.8,2,1.3,3c0,0.1,0.1,0.2,0.2,0.2c1,0.5,1.9,1.1,2.7,1.9c3.4-5,8.1-7.9,14.2-7.9C57.7,10,62.4,12.8,65.9,17.8z M19.8,58.7
		c0-0.1,0.1-0.2,0.1-0.2c1.5-6.1,3-12.1,4.5-18.2c0.1-0.3,0-0.4-0.2-0.5c-2.9-1.7-5.8-3.4-8.7-5.1c-0.4-0.2-0.8-0.2-1.3-0.2
		c0,0.2,0,0.3,0,0.5c0,7.1,0,14.3,0,21.4c0,0.1,0,0.1,0,0.2c0.1,0.1,0.1,0.3,0.2,0.3C16.2,57.5,18,58.1,19.8,58.7z M24.9,60.4
		C25,60.2,25,60.1,25,60c1.3-4.4,2.5-8.9,3.8-13.3c0.3-1.1,0.6-2.1,0.9-3.2c0.1-0.3,0.1-0.5-0.3-0.7c-0.5-0.3-1-0.6-1.5-0.9
		c-0.4-0.2-0.7-0.4-1.1-0.6c-1.5,6.1-3,12.1-4.5,18.2C23.1,59.8,24,60.1,24.9,60.4z M42.6,65.6c0-0.6-0.3-1-0.9-1.3
		c-0.6-0.3-1.1-0.1-1.6,0.3c-0.8,0.7-1.5,1.5-2.3,2.3c-0.6,0.6-0.6,1.5,0,2.1s1.5,0.6,2.1,0c0.7-0.7,1.5-1.5,2.2-2.2
		C42.5,66.4,42.6,66.1,42.6,65.6z M37.2,60.3c-0.2,0.1-0.5,0.1-0.8,0.4c-0.8,0.8-1.6,1.6-2.4,2.4c-0.5,0.6-0.5,1.4,0.1,2
		c0.5,0.5,1.4,0.6,1.9,0.1c0.8-0.8,1.7-1.6,2.5-2.5c0.4-0.4,0.5-1,0.2-1.5C38.4,60.6,37.9,60.4,37.2,60.3z M50.4,73.3
		c0-0.5-0.3-1-0.9-1.2c-0.6-0.2-1.1-0.2-1.6,0.3c-0.8,0.8-1.6,1.5-2.3,2.3c-0.6,0.6-0.6,1.5,0,2c0.6,0.6,1.4,0.6,2,0
		c0.8-0.7,1.5-1.5,2.3-2.3C50.2,74.2,50.4,73.8,50.4,73.3z M43,73.3c0.2-0.1,0.5-0.2,0.8-0.4c0.8-0.8,1.6-1.6,2.4-2.4
		c0.5-0.6,0.5-1.4,0-2s-1.4-0.6-2-0.1c-0.8,0.8-1.6,1.6-2.4,2.4c-0.4,0.4-0.5,1-0.2,1.5C41.7,73,42.2,73.2,43,73.3z M50.9,77.3
		c0.2,0.2,0.5,0.4,0.8,0.7c0.4,0.4,0.9,0.5,1.4,0.4s0.9-0.4,1.1-0.9c0.2-0.5,0.1-1-0.3-1.4c-0.4-0.4-0.8-0.7-1.2-1
		C52.1,75.9,51.5,76.5,50.9,77.3z"/>
</g>
</svg>
