<?xml version="1.0" encoding="utf-8"?>
<!-- Generator: Adobe Illustrator 21.0.0, SVG Export Plug-In . SVG Version: 6.00 Build 0)  -->
<svg version="1.1" id="Layer_1" xmlns="http://www.w3.org/2000/svg" xmlns:xlink="http://www.w3.org/1999/xlink" x="0px" y="0px"
	 viewBox="0 0 100 80" style="enable-background:new 0 0 100 80;" xml:space="preserve">
<style type="text/css">
	.st0{fill:#E2CA84;}
</style>
<g>
	<path class="st0" d="M40.5,80.1c-8.2,0-16.4,0-24.6,0V80c-0.7-0.3-0.8-0.8-0.8-1.5c0-1.2,0-2.4,0-3.5c0-0.8,0.1-1.7,0.3-2.5
		c0.1-0.6,0.4-1.3,0.7-1.8c1-1.8,2.6-2.8,4.4-3.4c0.4-0.1,0.4-0.2,0.1-0.5c-0.9-1.1-1.7-2.1-2.5-3.2c-0.9-1.2-1.7-2.5-2.4-3.8
		c-0.7-1.2-1.2-2.4-1.8-3.6c-0.3-0.7-0.6-1.3-0.8-2s-0.5-1.4-0.7-2.1c-0.2-0.9-0.5-1.7-0.7-2.6c-0.2-1.1-0.5-2.2-0.6-3.3
		c-0.2-1.3-0.3-2.6-0.3-3.9c0-1.4,0-2.7,0.1-4.1c0.1-1.2,0.2-2.4,0.4-3.6c0-0.3,0.1-0.6,0.2-0.9c0.2-0.8,0.4-1.7,0.6-2.5
		c0.2-0.6,0.3-1.3,0.5-1.9c0.2-0.7,0.5-1.4,0.7-2.1c0.3-0.8,0.6-1.6,1-2.4c0.8-1.6,1.6-3.2,2.6-4.7c1.3-2.1,2.8-4,4.5-5.9
		c1.8-2,3.8-3.7,6-5.3c1.6-1.1,3.2-2.2,5-3.1c1-0.5,2.1-1,3.2-1.4c0.7-0.3,1.4-0.6,2.2-0.8c0.8-0.3,1.5-0.5,2.3-0.7
		c0.5-0.1,1-0.2,1.5-0.4c0.6-0.1,1.3-0.3,1.9-0.4C44,2,44.4,2,44.9,1.9c1.3-0.1,2.5-0.4,3.8-0.4c1.6,0,3.3,0,4.9,0.1
		c1.1,0.1,2.1,0.2,3.2,0.3c0.3,0,0.6,0.1,1,0.2c0.8,0.2,1.6,0.4,2.4,0.6c0.7,0.2,1.3,0.3,2,0.5c0.7,0,1.7,0.4,2.8,0.8
		c1.2,0.5,2.4,1,3.6,1.6S71,7,72.2,7.7c0.4,0.2,0.7,0.7,0.6,1.4c-0.2,0.8-1.1,1.1-1.8,0.7c-0.5-0.3-0.9-0.6-1.3-0.8
		c-1.2-0.7-2.4-1.3-3.6-1.9c-0.9-0.4-1.8-0.8-2.7-1.1c-0.7-0.3-1.3-0.5-2-0.7c-0.3-0.1-0.5-0.1-0.8-0.2v0.1
		c4.9,4.3,7.7,9.8,9.8,15.8c0.1,0,0.2,0,0.3,0c0.7-0.1,1.4-0.3,2.1-0.5c0.5-0.1,1-0.2,1.4-0.3c0.7-0.2,1.3-0.4,2-0.6
		c0.6-0.2,1.2-0.4,1.7-0.6s1-0.4,1.4-0.5c0.3-0.1,0.4-0.2,0.2-0.5c-0.4-0.5-0.8-1-1.3-1.5c-1.3-1.5-2.7-2.9-4.2-4.2
		c-0.4-0.4-0.5-1.1-0.3-1.6c0.4-0.6,1.2-0.9,1.8-0.3c0.7,0.6,1.4,1.2,2,1.8c1.9,1.8,3.6,3.8,5,6c0.9,1.3,1.8,2.7,2.4,4.1
		c0.5,1.1,1,2.2,1.5,3.3c0.3,0.7,0.6,1.4,0.8,2.1c0.3,0.8,0.5,1.5,0.7,2.3c0.1,0.5,0.3,1,0.4,1.5c0.1,0.6,0.3,1.2,0.4,1.8
		c0.1,0.5,0.1,0.9,0.2,1.4c0.1,1.4,0.4,2.7,0.4,4.1c0.1,1.3,0,2.6-0.1,4c0,0.7-0.1,1.3-0.2,2c-0.1,1-0.3,2-0.5,3.1
		c-0.2,0.9-0.4,1.8-0.6,2.7c-0.3,1.1-0.6,2.2-1,3.2c-0.3,1-0.8,1.9-1.2,2.9c-0.7,1.6-1.6,3.2-2.6,4.7c-0.6,1-1.3,1.9-2,2.8
		c-0.6,0.8-1.3,1.6-2,2.5c0.1,0.1,0.1,0.1,0.2,0.2c0.5,0.2,1.1,0.4,1.6,0.7c2.4,1.3,3.7,3.3,3.8,6c0.1,1.7,0,3.4,0,5.1
		c0,0.5-0.3,0.8-0.6,1.1c-0.1,0.1-0.2,0.1-0.2,0.2c-13.6,0-27.2,0-40.9,0c-0.1,0-0.1-0.1-0.2-0.1c-0.8-0.4-0.9-1.5-0.3-2
		c0.3-0.3,0.7-0.3,1.1-0.3c6.5,0,12.9,0,19.4,0c0.5,0,0.6,0,0.5-0.5c0-1.5,0-3.1-0.1-4.6c0-0.8-0.2-1.5-0.5-2.2
		c-0.7-1.5-1.9-2.6-3.5-3.2c-1-0.4-2-0.7-2.9-1.1c-1-0.4-1.9-0.8-2.9-1.2c-1,1-2,2-3,3.1c-0.5,0.6-1.5,0.6-2,0
		c-0.9-0.9-1.8-1.8-2.7-2.7c-0.3-0.3-0.5-0.4-0.9-0.2c-0.1,0.1-0.3,0.1-0.5,0.2c-0.7,0.3-1.5,0.6-2.2,0.9c-0.8,0.3-1.6,0.7-2.4,1
		c-0.9,0.3-1.7,0.7-2.3,1.4c-1.2,1.2-1.8,2.6-1.9,4.3c0,1.5,0,3,0,4.5c0,0.3,0.1,0.4,0.4,0.4c1.1,0,2.2,0,3.4,0c0.2,0,0.4,0,0.6,0.1
		c0.5,0.2,0.7,0.6,0.7,1.1s-0.2,0.9-0.7,1.1C40.5,80,40.5,80,40.5,80.1z M48.9,25.3c-1-0.1-1.9-0.1-2.8-0.1
		c-1.2-0.1-2.3-0.1-3.5-0.2c-0.8,0-1.6-0.1-2.4-0.2c-0.8-0.1-1.6-0.1-2.5-0.2c0,0,0,0-0.1,0c-1.4-0.2-2.8-0.4-4.2-0.6
		c-0.4,0-1,0-1.5-0.1c-0.2-0.1-0.3,0.1-0.4,0.2c-0.1,0.5-0.2,0.9-0.4,1.4c-0.1,0.5-0.2,1-0.3,1.5c-0.1,0.6-0.3,1.3-0.4,1.9
		c-0.1,0.4-0.1,0.8-0.2,1.3c-0.1,0.9-0.3,1.7-0.4,2.6c-0.1,0.7-0.1,1.5-0.2,2.3c-0.1,1.3-0.2,2.7-0.3,4c0,0.3,0.1,0.4,0.4,0.4
		c4.1,0,8.2,0,12.3,0c0.2,0,0.3-0.1,0.5-0.2c0.5-0.4,1-0.9,1.6-1.3c0.8-0.6,1.6-1,2.5-1.3c0.6-0.2,1.2-0.3,1.8-0.4
		c0.5-0.1,0.5-0.1,0.5-0.5c0-3.3,0-6.6,0-9.9C48.9,25.6,48.9,25.5,48.9,25.3z M51.4,25.3c0,0.1,0,0.2,0,0.2c0,3.4,0,6.8,0,10.2
		c0,0.3,0.2,0.4,0.4,0.4c0.8,0,1.6,0.2,2.3,0.5c1.4,0.5,2.7,1.3,3.8,2.5c0.2,0.2,0.3,0.3,0.6,0.3c4,0,8.1,0,12.1,0
		c0.1,0,0.2,0,0.4,0c0-0.2,0-0.3,0-0.4c-0.1-1.1-0.1-2.1-0.2-3.2c0-0.6-0.1-1.3-0.2-1.9c-0.1-1-0.3-2.1-0.4-3.1
		c-0.1-0.7-0.2-1.3-0.3-2c-0.2-0.8-0.4-1.6-0.6-2.4c-0.2-0.7-0.3-1.4-0.5-2.1c0-0.2-0.2-0.3-0.4-0.2c-0.7,0.1-1.4,0.2-2.1,0.3
		c-0.6,0.1-1.3,0.1-1.9,0.2c-1.1,0.1-2.3,0.3-3.4,0.4c-0.6,0.1-1.2,0.1-1.9,0.1c-1.4,0.1-2.8,0.1-4.3,0.2
		C53.7,25.2,52.6,25.3,51.4,25.3z M73.5,39.4c0.2,0,0.3,0,0.4,0c4.2,0,8.4,0,12.7,0c0.6,0,0.6,0,0.6-0.6c-0.1-1.3-0.3-2.6-0.4-3.9
		c0-0.4-0.1-0.9-0.2-1.3c-0.1-0.6-0.3-1.2-0.4-1.8c-0.1-0.5-0.2-0.9-0.4-1.4c-0.2-0.6-0.4-1.1-0.6-1.7s-0.4-1.3-0.7-1.9
		c-0.4-0.9-0.7-1.8-1.2-2.6c-0.6-1.2-1.3-2.4-2-3.5c0-0.1-0.2-0.1-0.3-0.1c-0.3,0.1-0.6,0.2-1,0.4c-0.5,0.2-1,0.4-1.5,0.5
		c-0.8,0.2-1.5,0.5-2.3,0.7c-0.9,0.3-1.8,0.5-2.7,0.7c-0.7,0.2-1.5,0.3-2.3,0.5c-0.1,0-0.2,0.2-0.2,0.3c0.3,1.3,0.6,2.5,0.9,3.8
		c0.1,0.3,0.1,0.6,0.2,0.9c0.1,0.8,0.3,1.5,0.4,2.3c0.1,0.5,0.1,1,0.2,1.5c0.1,1.4,0.3,2.7,0.4,4.1c0.1,1,0.1,2.1,0.2,3.1
		C73.4,39.2,73.5,39.3,73.5,39.4z M26.9,39.4c0.1-1,0.1-2,0.2-2.9s0.1-1.7,0.2-2.6c0-0.1,0-0.1,0-0.2c0.2-1.3,0.4-2.6,0.6-3.9
		c0.1-1,0.3-1.9,0.5-2.8c0.3-1.1,0.6-2.2,0.9-3.3c0-0.1-0.1-0.2-0.2-0.3c-0.7-0.2-1.4-0.3-2.1-0.5s-1.4-0.3-2.2-0.5
		c-1-0.3-1.9-0.6-2.9-0.9c-0.8-0.3-1.6-0.6-2.5-0.9c-0.2-0.1-0.3-0.1-0.4,0.1c-0.8,1.4-1.5,2.7-2.3,4.1c-0.4,0.8-0.7,1.6-1.1,2.4
		c-0.2,0.5-0.3,1-0.5,1.5s-0.3,1.1-0.5,1.6c-0.1,0.5-0.3,0.9-0.4,1.4c-0.1,0.6-0.2,1.1-0.3,1.7c-0.2,1.2-0.4,2.4-0.6,3.6
		c-0.1,0.6-0.1,1.2-0.1,1.8c0,0.5,0,0.5,0.4,0.5c4.3,0,8.6,0,12.9,0C26.6,39.4,26.7,39.4,26.9,39.4z M67.9,21.4
		c-0.1-0.4-0.2-0.8-0.4-1.1c-0.4-1.1-0.9-2.1-1.3-3.2c-0.7-1.7-1.6-3.3-2.6-4.8c-1.2-1.8-2.5-3.4-4.1-4.8c-1.5-1.3-3.1-2.4-5-3.1
		c-0.9-0.3-1.8-0.6-2.8-0.7c-0.4,0-0.4,0-0.4,0.4c0,6.1,0,12.1,0,18.2c0,0.5,0,0.5,0.5,0.5c1.8-0.1,3.5-0.2,5.3-0.3
		c0.8,0,1.6-0.1,2.3-0.1c2-0.2,4-0.4,5.9-0.6C66.3,21.7,67.1,21.6,67.9,21.4z M32.4,21.4c1,0.2,2,0.3,3,0.5c0.9,0.1,1.7,0.2,2.6,0.3
		c1.1,0.1,2.2,0.2,3.3,0.3c0.8,0.1,1.6,0.1,2.5,0.1c1.6,0.1,3.1,0.1,4.7,0.2c0.5,0,0.5,0,0.5-0.5c0-6.1,0-12.2,0-18.2
		c0-0.1,0-0.2,0-0.4c-0.1,0-0.2,0-0.3,0c-0.7,0.1-1.3,0.3-2,0.4c-1.4,0.4-2.6,1-3.7,1.8c-1.1,0.7-2.1,1.6-3,2.5
		c-1.4,1.4-2.6,3-3.6,4.7c-0.5,0.8-1,1.7-1.4,2.6c-0.4,0.8-0.8,1.6-1.2,2.4c-0.3,0.7-0.6,1.4-0.9,2.2C32.6,20.6,32.5,21,32.4,21.4z
		 M40.6,41.9C40.5,41.9,40.5,41.9,40.6,41.9c-3.7,0-7.4,0-11,0c-0.2,0-0.3,0.1-0.3,0.3c0,0.6,0.1,1.3,0.1,1.9c0,0.3,0.1,0.4,0.4,0.4
		c0.5,0.1,1,0.2,1.4,0.3c1.1,0.3,2.1,0.9,3,1.6c1.9,1.7,2.9,3.9,2.9,6.5c0,0.6,0,1.3,0,1.9c0,0.1,0,0.3,0.1,0.4c0.5,0.5,0.8,1,1,1.7
		s0.2,1.5-0.1,2.2c-0.5,1.2-1.4,2-2.7,2.2c-0.1,0-0.3,0.1-0.3,0.3c-0.1,0.2-0.2,0.5-0.4,0.8c-0.5,1-1.3,1.8-2.3,2.5
		c-0.1,0.1-0.2,0.3-0.2,0.4c0,0.4,0.1,0.5,0.6,0.7c0.9,0.3,1.7,0.7,2.6,1c0.6,0.3,0.6,0.3,1.1-0.2c0.5-0.4,1-0.9,1.5-1.1
		c1-0.7,2-1.1,3-1.5c1.4-0.5,2.8-1.1,4.2-1.6c0.6-0.2,0.6-0.3,0.6-1c0-0.1,0-0.2,0-0.3s-0.1-0.3-0.2-0.4c-0.5-0.4-1-0.7-1.4-1.1
		c-0.9-0.8-1.5-1.8-1.9-2.9c-0.1-0.3-0.2-0.5-0.6-0.5c-0.3,0-0.6-0.1-0.9-0.2c-1.5-0.6-2.5-1.7-2.7-3.3c-0.2-1.4,0.3-2.6,1.3-3.6
		c0.2-0.2,0.3-0.3,0.3-0.6c0-0.9,0-1.9,0-2.8c0-1,0.2-2.1,0.6-3.1C40.4,42.5,40.5,42.2,40.6,41.9z M25.6,77.6c2.5,0,5,0,7.5,0
		c0.7,0,0.7,0,0.7-0.7c0-1.6,0-3.3,0-4.9c0-0.4,0.1-0.8,0.2-1.2c0.1-0.5,0.3-1,0.5-1.5c0-0.1-0.1-0.3-0.1-0.3
		c-0.8-0.3-1.6-0.6-2.4-1c-0.2-0.1-0.4,0-0.5,0.1c-0.7,0.7-1.3,1.4-2,2.1c-0.6,0.6-1.4,0.6-2,0c-0.7-0.7-1.4-1.4-2.2-2.1
		c-0.1-0.1-0.4-0.2-0.5-0.1c-0.7,0.2-1.4,0.5-2.1,0.8c-0.9,0.3-1.7,0.7-2.6,1c-0.9,0.4-1.6,1.1-2.1,2s-0.6,2-0.6,3
		c0,0.7,0,1.5,0,2.2c0,0.5,0,0.5,0.5,0.5C20.5,77.6,23.1,77.6,25.6,77.6z M59.9,41.8c0,0.1,0,0.2,0,0.2c0.1,0.4,0.3,0.8,0.5,1.2
		c0.3,0.9,0.5,1.9,0.5,2.9c0,0.9,0,1.7,0,2.6c0,0.1,0,0.3,0.1,0.4c0.6,0.5,1.1,1.2,1.3,2c0.3,1.1,0.2,2.1-0.3,3.1
		c-0.7,1.3-1.8,2-3.3,2.2c-0.1,0-0.3,0.2-0.3,0.3c-0.5,1.4-1.3,2.7-2.5,3.6c-0.6,0.5-1.3,0.8-1,1.7l0,0c0,0.2,0.1,0.3,0.3,0.4
		c0.7,0.3,1.4,0.6,2.1,0.8c0.7,0.3,1.4,0.6,2.2,0.9c0.7,0.3,1.4,0.5,2.1,0.8c1,0.4,1.9,1.1,2.7,1.8c0.1,0.1,0.3,0.1,0.4,0.1
		c1.1-0.4,2.2-0.9,3.3-1.3c0.3-0.1,0.4-0.3,0.4-0.6c0-0.3-0.2-0.4-0.4-0.5c-1.1-0.8-1.9-1.7-2.4-3C65.5,61.1,65.4,61,65,61
		c-0.4-0.1-0.8-0.2-1.1-0.4c-1.2-0.7-1.8-1.8-1.8-3.3c0-0.9,0.4-1.7,1-2.3c0.1-0.1,0.2-0.3,0.2-0.5c0-0.6,0-1.3,0-1.9
		c0-1.4,0.3-2.7,1-3.9c1.4-2.5,3.4-4,6.3-4.4c0.1,0,0.3-0.2,0.3-0.3c0.1-0.6,0.1-1.3,0.1-1.9c0-0.4,0-0.4-0.4-0.4
		c-3.4,0-6.9,0-10.3,0C60.1,41.8,60,41.8,59.9,41.8z M74.7,77.6c2.6,0,5.2,0,7.8,0c0.3,0,0.4-0.1,0.4-0.4c0-0.7,0-1.4,0-2.1
		c0-0.8,0-1.6-0.3-2.4c-0.4-1.2-1.1-2-2.1-2.6c-0.6-0.3-1.3-0.6-2-0.8c-1-0.4-2-0.8-3-1.2c-0.2-0.1-0.3,0-0.5,0.1
		c-0.7,0.7-1.4,1.4-2,2.1c-0.6,0.6-1.4,0.6-2,0c-0.7-0.7-1.4-1.4-2.1-2.1c-0.2-0.2-0.4-0.1-0.6-0.1c-0.1,0-0.1,0.1-0.2,0.1
		c-0.7,0.3-1.4,0.5-2.1,0.8c-0.2,0.1-0.2,0.2-0.1,0.4c0.3,0.7,0.6,1.5,0.7,2.2c0.1,0.9,0.1,1.8,0.1,2.7c0,1,0,1.9,0,2.9
		c0,0.3,0.1,0.4,0.4,0.4C69.6,77.6,72.1,77.6,74.7,77.6z M26.9,41.8c-0.2,0-0.3,0-0.4,0c-4.3,0-8.6,0-12.9,0c-0.5,0-0.5,0-0.4,0.5
		c0.2,1.6,0.3,3.2,0.6,4.8c0.1,0.8,0.3,1.7,0.5,2.5c0.3,1.1,0.6,2.2,1,3.3s0.8,2.2,1.3,3.3c0.8,1.6,1.7,3.2,2.6,4.7
		c1.1,1.8,2.5,3.5,3.9,5c0.1,0.1,0.2,0.2,0.4,0.1c0.3-0.1,0.5-0.2,0.8-0.3c0.4-0.2,0.5-0.3,0.4-0.7c-0.1-0.2-0.3-0.3-0.4-0.4
		c-1.1-0.8-1.9-1.7-2.3-3c-0.1-0.3-0.2-0.4-0.6-0.4c-0.4-0.1-0.8-0.1-1.1-0.3c-1.1-0.7-1.8-1.7-1.8-3.1c0-1,0.4-1.8,1.1-2.5
		c0.1-0.1,0.2-0.3,0.2-0.5c0.1-1,0.1-2.1,0.1-3.1c0.1-1.1,0.5-2,1-2.9c0.7-1.2,1.7-2.2,2.9-3c0.9-0.6,1.9-0.9,3-1.1
		c0.2,0,0.2-0.2,0.2-0.3c0-0.5-0.1-1-0.1-1.5C26.9,42.3,26.9,42.1,26.9,41.8z M73.5,41.8c-0.1,0.8-0.1,1.6-0.2,2.3
		c0,0.2,0.1,0.3,0.3,0.3c0.3,0,0.6,0.1,0.9,0.2c1.1,0.4,2.2,0.9,3.1,1.6c2,1.7,3,3.9,3.1,6.5c0,0.7,0,1.3,0,2c0,0.1,0.1,0.3,0.1,0.4
		c0.5,0.5,0.8,1,1,1.6c0.2,0.8,0.2,1.5-0.1,2.2c-0.5,1.2-1.4,2-2.7,2.2c-0.1,0-0.2,0.1-0.3,0.2c-0.2,0.3-0.3,0.6-0.4,0.8
		c-0.5,1-1.3,1.8-2.2,2.4c-0.4,0.3-0.4,0.8,0.1,1c0.2,0.1,0.4,0.2,0.5,0.3c0.2,0.1,0.4,0.1,0.6-0.1c0.4-0.5,0.9-1,1.3-1.5
		c0.6-0.8,1.3-1.6,1.9-2.4c0.9-1.3,1.7-2.6,2.4-4c0.6-1,1-2.1,1.5-3.2c0.3-0.7,0.5-1.5,0.8-2.2c0.3-0.8,0.5-1.5,0.7-2.3
		s0.4-1.5,0.5-2.3c0.2-1.3,0.4-2.6,0.6-3.9c0.1-0.5,0.1-1,0.1-1.5s0-0.5-0.4-0.5c-4.3,0-8.5,0-12.8,0C73.7,41.8,73.6,41.8,73.5,41.8
		z M53,46.4L53,46.4c-1.6,1.4-3.4,2.2-5.3,2.8c-1,0.3-2.1,0.4-3.2,0.6c-0.3,0-0.3,0.1-0.3,0.4c0,1.3,0,2.6,0,4c0,1.1,0.3,2.1,0.9,3
		c1,1.4,2.4,2.2,4.1,2.4c0.6,0,1.2,0,1.8,0c1.2,0,2.3-0.4,3.3-1.2c1.3-1.1,1.9-2.5,2-4.2c0-1.4,0-2.8,0-4.2c0-0.3-0.1-0.5-0.4-0.6
		c-0.8-0.4-1.4-0.9-1.9-1.6C53.7,47.4,53.3,46.9,53,46.4z M29.9,21c2.1-6,5-11.6,9.8-15.9c-0.2,0-0.3,0.1-0.5,0.1
		c-1,0.3-1.9,0.6-2.9,1c-0.8,0.3-1.5,0.6-2.2,1c-1.2,0.6-2.4,1.3-3.6,2c-1.6,1-3.1,2.1-4.5,3.3c-1.7,1.4-3.2,3-4.6,4.7
		c-0.2,0.3-0.5,0.6-0.7,0.9c-0.1,0.1,0,0.4,0,0.4c0.8,0.3,1.5,0.5,2.3,0.8c0.6,0.2,1.2,0.4,1.8,0.6c0.5,0.1,0.9,0.3,1.4,0.4
		c0.6,0.1,1.2,0.3,1.8,0.4C28.7,20.8,29.3,20.9,29.9,21z M42.2,47.6c0.5-0.1,0.9-0.1,1.4-0.2c0.6-0.1,1.3-0.1,1.9-0.2
		c0.9-0.2,1.8-0.4,2.7-0.7c0.7-0.3,1.4-0.6,2.1-1c0.9-0.5,1.7-1.2,2.3-2.1c0.5-0.7,1.7-0.7,2.1,0.2c0.2,0.4,0.3,0.9,0.5,1.4
		c0.6,1.4,1.6,2.4,3.2,2.7c0.3-3.1-0.6-5.8-3.3-7.7c-2.5-1.8-6.3-2-9.1-0.3C42.9,41.4,41.9,44.2,42.2,47.6z M23.9,56
		c0,0.1,0,0.2,0,0.3c0,0.8,0,1.7,0,2.5c0,1,0.2,2,0.8,2.8c0.7,0.9,1.5,1.4,2.7,1.5c0.7,0,1.4,0,2,0s1.2-0.2,1.7-0.6
		c1.2-0.8,1.9-1.9,1.9-3.4c0-1.1,0-2.1,0-3.2c0-0.3-0.1-0.4-0.3-0.5s-0.4-0.3-0.6-0.4c-0.4-0.4-0.8-0.9-1.2-1.4
		c-0.1-0.1-0.2-0.3-0.5-0.2c-1.1,0.9-2.3,1.5-3.7,1.8C25.8,55.5,24.9,55.7,23.9,56z M74.1,53.3c-1.9,1.5-4.2,2.2-6.7,2.5
		c0,1.2,0,2.3,0,3.4c0,0.5,0.1,1.1,0.3,1.5c0.7,1.4,1.8,2.3,3.4,2.3c0.8,0,1.7,0.1,2.6-0.1c1.5-0.5,2.8-2,2.8-3.7c0-1.1,0-2.3,0-3.4
		c0-0.3-0.1-0.4-0.3-0.5c-0.3-0.2-0.6-0.3-0.8-0.6C75,54.4,74.6,53.9,74.1,53.3z M65.7,53.5c0.2,0,0.4,0,0.5,0s0.2-0.1,0.4-0.1
		c1.2,0,2.3-0.3,3.4-0.7c0.8-0.3,1.6-0.6,2.3-1.2c0.5-0.4,0.9-0.9,1.3-1.3c0.6-0.7,1.6-0.6,2,0.3c0.2,0.3,0.3,0.7,0.4,1.1
		c0.4,0.8,0.9,1.5,1.8,1.8c0.4,0.1,0.3,0,0.3-0.3c0-1.6-0.4-3.1-1.5-4.3c-1.1-1.3-2.6-1.9-4.2-2.1c-0.6,0-1.1,0.1-1.7,0.1
		c-0.8,0.1-1.6,0.4-2.3,0.8c-1.1,0.7-1.9,1.6-2.4,2.9c-0.1,0.4-0.3,0.9-0.3,1.3C65.8,52.4,65.8,53,65.7,53.5z M22.3,53.5
		c0.2,0,0.3,0,0.4,0s0.2-0.1,0.4-0.1c1.2,0,2.3-0.3,3.5-0.7c0.8-0.3,1.6-0.6,2.3-1.2c0.5-0.4,0.9-0.8,1.3-1.3
		c0.6-0.7,1.7-0.6,2.1,0.3c0.1,0.4,0.3,0.7,0.4,1.1c0.4,0.8,0.9,1.5,1.8,1.8c0.3,0.1,0.3,0,0.3-0.2c0-1.1-0.1-2.1-0.6-3.1
		c-1-2-2.7-3.1-4.9-3.4c-1.1-0.1-2.1,0-3.1,0.4c-1.2,0.4-2.1,1.2-2.8,2.2c-0.6,0.8-0.9,1.8-1,2.8C22.2,52.6,22.3,53.1,22.3,53.5z
		 M50.1,65.3c0.5-0.5,1-1,1.6-1.4c0.5-0.4,0.7-0.9,0.6-1.5c0-0.3-0.1-0.4-0.4-0.4c-1.1,0-2.3,0-3.4,0c-0.2,0-0.2,0.1-0.2,0.2
		c0,0.4,0,0.7,0,1.1c0,0.1,0,0.2,0.1,0.3C49,64.2,49.6,64.8,50.1,65.3z M28.5,67.8c0.4-0.4,0.7-0.8,1.1-1.1c0.3-0.2,0.3-0.5,0.3-0.8
		c0-0.2-0.1-0.2-0.2-0.2c-0.7,0-1.4,0-2.2,0c-0.1,0-0.2,0.1-0.2,0.1c0,0.3-0.1,0.7,0.1,0.9C27.6,67,28,67.4,28.5,67.8z M72,67.8
		c0.4-0.4,0.7-0.8,1.1-1.1c0.4-0.3,0.3-0.7,0.3-1.1c-0.8,0-1.6,0-2.4,0c-0.1,0-0.2,0.1-0.2,0.1c0,0.3-0.1,0.7,0.1,0.9
		C71.1,67,71.5,67.4,72,67.8z M41.8,52.4c0-0.4,0-0.7,0-1.1c0-0.1,0-0.3-0.1-0.4c-0.1,0-0.3,0-0.4,0.1c-1,0.6-1,2.2,0.1,2.8
		c0.3,0.2,0.4,0.1,0.4-0.2C41.8,53.2,41.8,52.8,41.8,52.4z M58.8,53.8c0.6,0,1.2-0.8,1.1-1.6c-0.1-0.8-0.6-1.4-1.1-1.4
		C58.8,51.9,58.8,52.9,58.8,53.8z M21.4,56.9C21.1,57,21,57.2,21,57.7c0,0.3,0.1,0.6,0.5,0.8C21.4,57.9,21.4,57.4,21.4,56.9z
		 M64.9,58.5c0-0.6,0-1.1,0-1.6c-0.3,0.1-0.4,0.3-0.4,0.6C64.4,57.9,64.5,58.2,64.9,58.5z M79,58.4c0.4-0.2,0.6-0.6,0.4-1
		c-0.1-0.2-0.1-0.5-0.4-0.4C79,57.4,79,57.9,79,58.4z"/>
	<path class="st0" d="M35.5,58.4c0-0.5,0-1,0-1.5c0.3,0,0.4,0.3,0.4,0.5C36.1,57.9,35.9,58.2,35.5,58.4z"/>
</g>
</svg>
