<?xml version="1.0" encoding="utf-8"?>
<!-- Generator: Adobe Illustrator 21.0.0, SVG Export Plug-In . SVG Version: 6.00 Build 0)  -->
<svg version="1.1" id="Layer_1" xmlns="http://www.w3.org/2000/svg" xmlns:xlink="http://www.w3.org/1999/xlink" x="0px" y="0px"
	 viewBox="0 0 100 80" style="enable-background:new 0 0 100 80;" xml:space="preserve">
<style type="text/css">
	.st0{fill:#FFFFFF;}
	.st1{fill:#E2CA84;}
</style>
<g>
	<path class="st0" d="M35.5,58.4c0-0.5,0-1,0-1.5c0.3,0,0.4,0.3,0.4,0.5C36.1,57.9,35.9,58.2,35.5,58.4z"/>
</g>
<g>
	<path class="st1" d="M28.2,13c0-0.8,0-1.6,0-2.3c0-0.1,0-0.2,0-0.3c0-1,0.4-1.4,1.5-1.4c1.3,0,2.5,0,3.8,0c0.1,0,0.2,0,0.4,0
		C34,8.3,34,7.7,34.2,7c0.5-2.5,2.5-4.4,5.1-4.7c1.7-0.2,3.5-0.2,5.2-0.2c2.3,0,4.5,0.1,6.8,0.2c3,0.1,5.6,2.9,5.5,6
		c0,0.3,0,0.6,0,0.9c0.1,0,0.3,0,0.4,0c1.3,0,2.6,0,4,0c0.2,0,0.4,0,0.6,0c0.5,0.1,0.8,0.3,0.9,0.9c0.1,0.8,0,1.5,0.1,2.3
		c0,0.2,0,0.5,0,0.8c0.2,0,0.3,0,0.4,0c3.1,0,6.2,0,9.3,0c0.7,0,1.4,0.1,2.1,0.2c1.9,0.5,3.2,2.1,3.2,4.1c0,0.2,0,0.3,0,0.5
		c0,9.2,0,18.3,0,27.5s0,18.4,0,27.6c0,1,0.1,2,0,3c-0.2,2.1-1.8,3.7-3.9,4c-0.3,0-0.6,0.1-0.9,0.1c-18.2,0-36.4,0-54.5,0
		c-0.8,0-1.5-0.1-2.2-0.4c-1.7-0.8-2.5-2.2-2.6-4c0-0.2,0-0.3,0-0.5c0-16.6,0-33.2,0-49.8c0-2.6,0-5.1,0-7.7c0-0.7,0.1-1.3,0.4-2
		c0.6-1.7,2-2.6,3.7-2.7C19.5,13,21.3,13,23,13C24.8,13,26.5,13,28.2,13C27.9,13,28,13,28.2,13z M28.3,15.6c-0.2,0-0.3,0-0.5,0
		c-3.1,0-6.3,0-9.4,0c-0.2,0-0.4,0-0.7,0c-1.2,0.1-1.9,0.7-2,1.9c0,0.2,0,0.5,0,0.7c0,19.1,0,38.1,0,57.2c0,0.2,0,0.5,0,0.7
		c0.1,0.8,0.6,1.4,1.4,1.6c0.4,0.1,0.8,0.1,1.2,0.1c17.9,0,35.7,0,53.6,0c0.3,0,0.7,0,1,0c1.3-0.1,1.9-0.7,2.1-2
		c0-0.3,0.1-0.6,0.1-0.9c0-18.9,0-37.9,0-56.8c0-0.1,0-0.3,0-0.4c-0.1-1.3-0.7-1.9-1.9-2.1c-0.2,0-0.4,0-0.5,0c-3.2,0-6.3,0-9.5,0
		c-0.2,0-0.4,0-0.6,0.1c0,0.1,0,0.1,0,0.1c0,0.9,0,1.9,0,2.8c0,1.2-0.3,1.6-1.6,1.6c-10.3,0-20.7,0-31,0c-0.2,0-0.3,0-0.5,0
		c-0.7-0.1-1.1-0.4-1.1-1.1c0-1,0-2,0-3C28.3,15.9,28.3,15.7,28.3,15.6z M60,11.5c-9.8,0-19.5,0-29.3,0c0,2.1,0,4.2,0,6.3
		c9.8,0,19.5,0,29.3,0C60,15.7,60,13.6,60,11.5z M54.3,8.9c0-0.2,0-0.5,0-0.7c-0.1-2-1.5-3.4-3.4-3.6C50,4.5,49,4.5,48.1,4.5
		c-2.8,0-5.6,0-8.3,0.1c-1.6,0-2.9,1.3-3.2,2.8c-0.1,0.5-0.1,1-0.1,1.4C42.4,8.9,48.3,8.9,54.3,8.9z"/>
	<path class="st1" d="M80.3,45.5c0-5.4,0-10.7,0-16.1c0-1.9,0.7-3.5,2.3-4.6c1-0.7,2.2-0.9,3.4-0.8c0.5,0,1,0.1,1.5,0.2
		c1.9,0.3,3.6,2,3.8,4.3c0,0.4,0,0.8,0,1.2c0,9.4,0,18.8,0,28.2c0,1.4,0,2.7-0.1,4s-0.5,2.6-0.8,3.8c-1.1,4.4-2.3,8.7-3.4,13.1
		c0,0.2-0.1,0.4-0.2,0.5c-0.2,0.4-0.5,0.7-1,0.7s-0.9-0.2-1.1-0.6c-0.1-0.2-0.2-0.4-0.3-0.6c-1.4-5.3-2.7-10.7-4-16
		c-0.1-0.5-0.2-0.9-0.2-1.4C80.3,56.1,80.3,50.8,80.3,45.5L80.3,45.5z M82.9,35.1c0,8.6,0,17.1,0,25.7c2,0,4,0,6,0
		c0-8.6,0-17.1,0-25.7C86.9,35.1,84.9,35.1,82.9,35.1z M88.9,32.7c0-0.1,0-0.1,0-0.2c0-1.2,0.1-2.4,0-3.6c0-1.1-0.5-2-1.6-2.4
		c-0.9-0.3-1.8-0.4-2.7-0.1c-1,0.3-1.6,1.1-1.7,2.2c0,1.3,0,2.5,0,3.8c0,0.1,0,0.1,0,0.2C85,32.7,86.9,32.7,88.9,32.7z M83.1,63.3
		c0.9,3.5,1.8,6.9,2.7,10.3h0.1c0.9-3.4,1.7-6.9,2.6-10.3C86.7,63.3,84.9,63.3,83.1,63.3z"/>
	<path class="st1" d="M46.4,27.7c0.2,0,0.3,0,0.4,0c2.7,0,5.4,0,8.1,0c0.3,0,0.5,0,0.8,0c1.2,0.2,1.9,1,1.9,2.2c0,2.1,0,4.2,0,6.3
		c0,0.2,0,0.5,0,0.7c0.1,0.7-0.1,1.4-0.4,2.1c-0.1,0.3-0.2,0.7-0.2,1c-0.1,0.6-0.3,1-0.9,1.1c-0.6,0.1-1-0.1-1.3-0.6
		c-0.1-0.1-0.1-0.3-0.2-0.5c-0.6,0.2-1.2,0.4-1.7,0.6c-3,1.1-5.9,2.2-8.8,3.3c-0.7,0.3-0.8,0.4-0.8,1.2c0,0.6,0,1.2,0,1.8
		c0,0.9-0.4,1.3-1.3,1.3c-1.7,0-3.4,0-5.2,0c-0.8,0-1.2-0.4-1.3-1.2c0-0.6,0-1.3,0-1.9c0-0.6-0.2-0.8-0.7-1
		c-3.4-1.3-6.8-2.5-10.2-3.8c-0.1,0-0.3-0.1-0.4-0.1c0,4.3,0,8.6,0,12.9c0.2,0,0.3,0,0.4,0c4.7,0,9.4,0,14.1,0c0.3,0,0.6,0,0.8,0.1
		c0.6,0.2,0.9,0.6,0.9,1.2c0,0.6-0.4,1.1-1,1.1c-0.9,0.1-1.7,0-2.6,0c-4.2,0-8.4,0-12.6,0c-1.6,0-2.5-0.8-2.5-2.5c0-2.2,0-4.4,0-6.7
		c0-2,0-4.1,0-6.1c0-0.3-0.1-0.6-0.2-0.9c-0.2-0.7-0.4-1.3-0.4-2.1c0-2.3,0-4.5,0-6.8c0-0.3,0-0.6,0.1-0.9c0.2-1,1.1-1.6,2.2-1.6
		c2,0,4,0,6,0c0.9,0,1.8,0,2.7,0c0.2,0,0.3-0.1,0.3-0.3c0-0.7,0.1-1.4,0.2-2.1c0.4-2.2,1.9-3.7,4.1-3.8c1.8-0.1,3.7-0.1,5.6,0
		c2.1,0.1,3.6,1.6,4,3.7c0.1,0.7,0.1,1.4,0.1,2.1C46.4,27.4,46.4,27.5,46.4,27.7z M43.5,41.4c0.2-0.1,0.3-0.1,0.5-0.1
		c3.7-1.4,7.3-2.7,11-4.1c0.4-0.2,0.5-0.3,0.5-0.8c0-2,0-4,0-6c0-0.1,0-0.2,0-0.3c-10.6,0-21.2,0-31.9,0c0,0.1,0,0.3,0,0.4
		c0,1.9,0,3.8,0,5.7c0,0.7,0.1,0.8,0.8,1.1c3.7,1.3,7.3,2.7,11,4c0.1,0,0.2,0.1,0.4,0.1c0-0.4,0-0.8,0-1.2c0.1-0.9,0.5-1.2,1.3-1.2
		c1.7,0,3.3,0,5,0c0.9,0,1.4,0.4,1.4,1.4C43.5,40.7,43.5,41,43.5,41.4z M44,27.7c0-0.6,0-1.1,0-1.7c-0.1-1.2-0.9-2.1-2-2.1
		c-1.7-0.1-3.4,0-5.1,0c-0.7,0-1.4,0.4-1.7,1.1c-0.4,0.8-0.3,1.8-0.5,2.7C37.9,27.7,40.9,27.7,44,27.7z M41,45.6c0-1.3,0-2.7,0-4
		c-0.9,0-1.8,0-2.7,0c0,1.3,0,2.7,0,4C39.1,45.6,40,45.6,41,45.6z"/>
	<path class="st1" d="M56.1,70.5c-0.4,0-0.8,0-1.3,0c-0.9,0-1.4-0.5-1.4-1.4c0-1.5-0.8-2.3-2.4-2.7c-0.5-0.1-0.9,0-1.3,0.3
		c-0.3,0.3-0.7,0.6-1.1,0.8c-0.5,0.4-0.9,0.4-1.4-0.1c-0.8-0.7-1.5-1.5-2.2-2.3c-0.5-0.5-0.4-1,0-1.5c0.2-0.3,0.5-0.5,0.7-0.8
		c0.4-0.6,0.5-1.4,0.2-2.1c-0.1-0.2-0.2-0.4-0.3-0.6c-0.3-0.7-0.7-1.1-1.5-1.1c-0.5,0-0.9-0.2-1.4-0.3s-0.8-0.5-0.8-1.1
		c0-0.9,0-1.8,0-2.7c0-0.8,0.5-1.2,1.2-1.2c0.3,0,0.5,0,0.8-0.1c0.8-0.2,1.4-0.6,1.7-1.4c0.2-0.4,0.3-0.8,0.4-1.2
		c0.1-0.3,0-0.7-0.3-0.9c-0.3-0.4-0.6-0.8-0.9-1.2c-0.4-0.5-0.3-1,0.1-1.5c0.7-0.7,1.3-1.5,2-2.2c0.5-0.6,1.1-0.5,1.6,0
		c1,1,2,1.1,3.2,0.6c0.2-0.1,0.4-0.2,0.6-0.3c0.4-0.2,0.6-0.5,0.7-1c0.1-0.6,0.2-1.1,0.3-1.6s0.4-0.7,0.9-0.7c1,0,2-0.1,3,0
		c0.8,0,1.1,0.5,1.1,1.2c0,1.2,0.5,2.1,1.6,2.6c0.2,0.1,0.5,0.2,0.7,0.3c0.5,0.2,0.9,0.1,1.4-0.2c0.3-0.2,0.6-0.5,1-0.7
		c0.8-0.5,1.4-0.4,2,0.2c0.6,0.6,1.1,1.2,1.7,1.8c0.7,0.8,0.7,1.2,0,2c-0.6,0.6-1,1.3-0.9,2.2c0.1,0.7,0.5,1.3,0.9,1.9
		c0.1,0.1,0.4,0.2,0.6,0.2c0.5,0.1,1,0.1,1.5,0.2c0.7,0.1,1,0.4,1,1.1c0,1.1,0,2.1,0,3.2c0,0.6-0.5,1-1.1,1c-0.3,0-0.6,0-0.8,0.1
		c-1,0.2-1.7,0.8-1.9,1.8c-0.1,0.3-0.2,0.6-0.3,0.9c-0.1,0.2-0.1,0.3,0,0.4c0.4,0.5,0.8,1,1.2,1.6c0.5,0.7,0.5,1.1-0.1,1.7
		s-1.2,1.2-1.8,1.9c-0.6,0.5-1.1,0.6-1.7,0.1c-0.5-0.4-1-0.7-1.4-1.1c-0.2-0.1-0.3-0.2-0.5-0.1c-0.6,0.2-1.2,0.5-1.8,0.7
		c-0.5,0.2-0.7,0.5-0.8,1s-0.2,1-0.3,1.5c-0.1,0.6-0.5,0.9-1,0.9C57.2,70.5,56.7,70.5,56.1,70.5L56.1,70.5z M64,47.8
		c-0.4,0.4-0.9,0.7-1.3,1c-0.5,0.4-1.1,0.5-1.7,0.2c-1.1-0.5-2.2-1-3.3-1.4c-0.5-0.2-0.9-0.6-0.9-1.2c-0.1-0.6-0.2-1.1-0.2-1.7
		c-0.1-0.4-0.3-0.2-0.5-0.3c-0.2,0-0.3,0.1-0.3,0.3c0,0.4-0.1,0.8-0.1,1.3c-0.1,1.1-0.4,1.5-1.6,1.7c-0.8,0.1-1.5,0.4-2.1,0.9
		c-0.9,0.7-1.8,0.6-2.6-0.1c-0.2-0.1-0.3-0.3-0.5-0.5s-0.4-0.3-0.6-0.4c-0.2,0.2-0.3,0.4-0.5,0.6c0.3,0.4,0.6,0.7,0.9,1.1
		c0.7,0.7,0.7,1.4,0.3,2.2c-0.5,1-0.9,2-1.3,3c-0.2,0.6-0.6,1-1.3,1c-0.5,0-1,0.1-1.5,0.2c-0.1,0-0.2,0.1-0.2,0.2
		c-0.1,0.5,0,0.6,0.5,0.7c0.5,0.1,1,0.1,1.4,0.2c0.5,0.1,0.8,0.3,1,0.8c0.1,0.2,0.2,0.5,0.2,0.7c0.2,0.9,0.6,1.7,1,2.5
		c0.5,0.9,0.5,1.2-0.2,2c-0.3,0.4-0.7,0.9-1,1.3c0.2,0.2,0.4,0.4,0.6,0.6c0.5-0.4,0.9-0.7,1.4-1.1c0.6-0.4,1.1-0.5,1.7-0.2
		c1,0.5,2.1,0.9,3.1,1.3c0.6,0.2,1,0.6,1.1,1.3c0.1,0.5,0.2,0.9,0.2,1.4c0.1,0.7,0.1,0.7,0.9,0.6c0.1-0.6,0.1-1.1,0.2-1.7
		c0.1-0.7,0.4-1.1,1.1-1.4c1.1-0.5,2.2-0.9,3.2-1.4c0.6-0.3,1.2-0.3,1.7,0.2c0.4,0.4,0.9,0.7,1.4,1.1c0.2-0.2,0.3-0.4,0.4-0.6
		c-0.3-0.4-0.6-0.8-0.9-1.1c-0.6-0.7-0.6-1.4-0.2-2.2c0.3-0.6,0.6-1.2,0.9-1.9c0.2-0.4,0.2-0.8,0.4-1.2c0.2-0.5,0.5-0.8,1.1-0.9
		c0.4-0.1,0.9-0.1,1.3-0.1c0.2,0,0.4,0,0.4-0.1c0.1-0.1,0.2-0.3,0.2-0.5s-0.1-0.3-0.3-0.3c-0.4,0-0.9-0.1-1.3-0.1
		c-0.7,0-1.1-0.4-1.4-1c-0.5-1.1-1-2.2-1.5-3.3c-0.3-0.6-0.2-1.1,0.2-1.6s0.8-1,1.1-1.4C64.4,48.2,64.2,48,64,47.8z"/>
	<path class="st1" d="M44.9,74.9c-7.8,0-15.5,0-23.3,0c-0.3,0-0.7,0-1-0.1c-0.6-0.1-0.8-0.5-0.8-1.2c0-0.6,0.3-1,0.9-1.1
		c0.2,0,0.4-0.1,0.7-0.1c15.7,0,31.3,0,47,0c0.4,0,0.8,0.1,1.2,0.2c0.5,0.2,0.7,0.6,0.7,1.1s-0.3,0.9-0.8,1
		c-0.4,0.1-0.8,0.1-1.2,0.1C60.5,74.9,52.7,74.9,44.9,74.9z"/>
	<path class="st1" d="M31.9,66.1c3.5,0,7,0,10.5,0c0.2,0,0.4,0,0.6,0c0.6,0.1,0.9,0.4,1,1.1c0,0.6-0.3,1.1-0.9,1.2
		c-0.2,0-0.5,0.1-0.7,0.1c-7,0-14.1,0-21.1,0c-0.1,0-0.3,0-0.4,0c-0.9-0.1-1.3-0.7-1.1-1.6c0.1-0.4,0.4-0.7,0.9-0.7
		c0.2,0,0.4,0,0.7,0C24.9,66.1,28.4,66.1,31.9,66.1L31.9,66.1z"/>
	<path class="st1" d="M30.9,62.1c-3.1,0-6.2,0-9.3,0c-0.2,0-0.5,0-0.7,0c-0.7-0.1-1.1-0.5-1-1.3c0-0.6,0.4-1.1,1.1-1.1
		c0.5,0,1.1,0,1.6,0c6,0,12,0,18,0c1,0,1.5,0.6,1.3,1.5c-0.1,0.5-0.4,0.8-1,0.8c-0.4,0-0.8,0-1.2,0C36.7,62.1,33.8,62.1,30.9,62.1
		L30.9,62.1z"/>
	<path class="st1" d="M49.5,56.3c0-3.7,2.9-6.7,6.6-6.6c3.7,0,6.6,3,6.6,6.7c0,3.6-3,6.6-6.6,6.6C52.4,62.9,49.5,60,49.5,56.3z
		 M60.3,56.3c0-2.3-1.9-4.2-4.2-4.2c-2.4,0-4.3,1.9-4.3,4.2c0,2.4,1.8,4.2,4.2,4.3C58.5,60.5,60.3,58.7,60.3,56.3z"/>
</g>
</svg>
