<?xml version="1.0" encoding="utf-8"?>
<!-- Generator: Adobe Illustrator 21.0.0, SVG Export Plug-In . SVG Version: 6.00 Build 0)  -->
<svg version="1.1" id="Layer_1" xmlns="http://www.w3.org/2000/svg" xmlns:xlink="http://www.w3.org/1999/xlink" x="0px" y="0px"
	 viewBox="0 0 100 80" style="enable-background:new 0 0 100 80;" xml:space="preserve">
<style type="text/css">
	.st0{fill:#E2CA84;}
</style>
<g>
	<path class="st0" d="M22.2,0c16.1,0,32.1,0,48.2,0c0,3.1,0,6.2,0,9.4c2.2-0.6,4.2-0.5,6.2,0.4s3.5,2.3,4.5,4.3
		c1.7,3.4,1.1,8.3-2.9,11.3c0.1,0.1,0.2,0.1,0.4,0.1c5.9,2.3,9.8,8,9.8,14.3c0,2,0,3.9,0,5.9c0,0.7-0.2,1.4-0.5,2
		c-0.8,1.5-2.1,2.4-3.9,2.4c-0.7,0-1.3,0-2,0c0,0.2,0,0.3,0,0.5c0,8,0,16,0,24c0,2.1-1.3,3.9-3.2,4.7c-2.1,0.8-3.9,0.4-5.5-1.1
		C73.2,78.1,73.1,78,73,78c-1.5,1.6-3.3,2.2-5.4,1.5c-2.3-0.7-3.5-2.5-3.6-4.9c-18.4,0-36.8,0-55.3,0c0-0.2,0-0.3,0-0.4
		c0-20.1,0-40.2,0-60.2c0-0.2,0.1-0.4,0.2-0.6c4.4-4.3,8.7-8.7,13.1-13C22,0.2,22.1,0.1,22.2,0z M63.9,46.3c-0.1,0-0.2,0-0.2,0
		c-7,0-13.9,0-20.9,0c-0.1,0-0.3,0.1-0.4,0.2c-4.4,4.2-9.6,5.8-15.5,4.5c-9-1.9-14.8-11.2-12.6-20.1c2.1-8.7,10.5-14.2,19.3-12.6
		c7.7,1.4,13.6,8.3,13.7,16.1c0,0.5,0,1,0,1.6c3.6,0,7.2,0,10.8,0c0.7-2.5,1.8-4.6,3.5-6.5s3.8-3.2,6.2-4.1C65.3,23.5,64,21,64,17.8
		c0.1-3.1,1.5-5.5,4-7.3c-0.1-0.2-0.1-0.3-0.1-0.4c0-2.4,0-4.7,0-7.1c0-0.1,0-0.3,0-0.4c-14.6,0-29.1,0-43.7,0c0,4.3,0,8.5,0,12.8
		c-4.3,0-8.6,0-12.8,0c0,18.9,0,37.7,0,56.5c17.6,0,35.1,0,52.7,0C63.9,63.4,63.9,54.9,63.9,46.3z M44.6,36c0.6-6.1-3-12.6-9.7-14.8
		c-6.5-2.1-13.6,0.8-16.8,6.9s-1.6,13.5,3.8,17.8c5.4,4.2,12.5,3.6,17,0.2c-3.3-1.7-6.6-3.3-9.9-5c0.1-0.1,0.1-0.1,0.2-0.1
		c3.3-1.6,6.6-3.3,9.9-4.9c0.1-0.1,0.3-0.1,0.5-0.1c1.6,0,3.1,0,4.7,0C44.3,36,44.4,36,44.6,36z M74.2,52.7c0,0.2,0,0.3,0,0.5
		c0,7,0,14,0,21c0,0.3,0,0.5,0,0.8c0.1,1.1,1.1,2.1,2.2,2.2c1.7,0.2,2.9-1,2.9-2.8c0-7.9,0-15.9,0-23.8c0-0.1,0-0.2,0-0.4
		c-0.2,0-0.3,0-0.4,0c-1.8,0-3.6,0-5.4,0c-2,0-3.7-1.4-4.3-3.3c0-0.2-0.1-0.3-0.1-0.5c-0.9,0-1.7,0-2.6,0c0,0.2,0,0.3,0,0.4
		c0,4.1,0,8.2,0,12.3c0,5.2,0,10.3,0,15.5c0,1,0.4,1.8,1.3,2.3c1.7,1,3.8-0.3,3.8-2.3c0-7.1,0-14.2,0-21.3c0-0.1,0-0.3,0-0.5
		C72.5,52.7,73.3,52.7,74.2,52.7z M83.2,43.7c-0.2,0-0.3,0-0.4,0c-3,0-6,0-9.1,0c-1.2,0-2.1,0.9-2.1,2s0.9,1.8,2.1,1.8
		c3.3,0,6.6,0,9.9,0c1.4,0,2.2-0.8,2.2-2.2c0-1.8,0-3.6,0-5.4c0-0.9-0.1-1.7-0.2-2.6c-1.2-6.5-7.4-11.2-13.9-10.4
		c-5.2,0.6-8.8,3.5-10.8,8.4c-0.1,0.2-0.1,0.4-0.2,0.6c0.9,0,1.7,0,2.5,0c3.7,0,7.5,0,11.2,0c2.4,0,4.5,1.8,4.9,4.2
		c0.1,0.3,0.1,0.6,0.1,1c1.3,0,2.5,0,3.8,0C83.2,42,83.2,42.8,83.2,43.7z M79.4,18c0-3.5-2.9-6.4-6.4-6.4c-3.6,0-6.4,2.9-6.4,6.4
		s2.9,6.4,6.4,6.4S79.4,21.5,79.4,18z M40.8,43.7c6.9,0,13.7,0,20.5,0c0-1.7,0-3.4,0-5.1c-6.9,0-13.7,0-20.5,0
		C40.8,40.3,40.8,42,40.8,43.7z M21.5,4.6c-2.7,2.7-5.5,5.5-8.2,8.2c2.7,0,5.5,0,8.2,0C21.5,10,21.5,7.3,21.5,4.6z M69.1,38.6
		c0,1.7,0,3.4,0,5.1c0.2,0,0.4,0.1,0.6-0.2c0.9-1.5,2.2-2.3,4-2.3c0.9,0,1.8,0,2.7,0c0.1,0,0.2,0,0.4,0c0.1-1.3-1-2.5-2.3-2.5
		C72.7,38.5,70.9,38.6,69.1,38.6L69.1,38.6z M66.5,43.7c0-1.7,0-3.4,0-5.1c-0.9,0-1.7,0-2.5,0c0,1.7,0,3.4,0,5.1
		C64.8,43.7,65.6,43.7,66.5,43.7z M38.2,42.9c0-1.2,0-2.3,0-3.5c-1.2,0.6-2.3,1.2-3.5,1.8C35.9,41.8,37,42.3,38.2,42.9z"/>
	<path class="st0" d="M13.8,54c6.8,0,13.7,0,20.5,0c0,5.1,0,10.2,0,15.4c-6.8,0-13.7,0-20.5,0C13.8,64.3,13.8,59.2,13.8,54z
		 M16.4,66.8c5.2,0,10.3,0,15.4,0c0-3.4,0-6.8,0-10.2c-5.1,0-10.3,0-15.4,0C16.4,60,16.4,63.4,16.4,66.8z"/>
	<path class="st0" d="M57.5,54c0,5.1,0,10.2,0,15.4c-6.8,0-13.7,0-20.5,0c0-5.1,0-10.2,0-15.4C43.8,54,50.6,54,57.5,54z M39.5,56.6
		c0,3.4,0,6.8,0,10.2c5.1,0,10.3,0,15.4,0c0-3.4,0-6.8,0-10.2C49.8,56.6,44.7,56.6,39.5,56.6z"/>
	<path class="st0" d="M61.3,10.3c0,0.9,0,1.7,0,2.5c-4.7,0-9.4,0-14.1,0c0-0.8,0-1.7,0-2.5C51.9,10.3,56.6,10.3,61.3,10.3z"/>
	<path class="st0" d="M47.2,15.4c4.7,0,9.4,0,14.1,0c0,0.8,0,1.7,0,2.5c-4.7,0-9.4,0-14.1,0C47.2,17.1,47.2,16.3,47.2,15.4z"/>
	<path class="st0" d="M47.2,23.1c0-0.8,0-1.7,0-2.5c4.7,0,9.4,0,14.1,0c0,0.8,0,1.7,0,2.5C56.6,23.1,51.9,23.1,47.2,23.1z"/>
	<path class="st0" d="M49.8,7.7c-0.9,0-1.7,0-2.5,0c0-0.9,0-1.7,0-2.5c0.8,0,1.7,0,2.5,0C49.8,6,49.8,6.8,49.8,7.7z"/>
	<path class="st0" d="M52.4,7.7c0-0.9,0-1.7,0-2.5c0.8,0,1.7,0,2.5,0c0,0.8,0,1.7,0,2.5C54.1,7.7,53.2,7.7,52.4,7.7z"/>
	<path class="st0" d="M60.1,5.2c0,0.9,0,1.7,0,2.5c-0.8,0-1.7,0-2.5,0c0-0.8,0-1.7,0-2.5C58.4,5.2,59.2,5.2,60.1,5.2z"/>
	<path class="st0" d="M65.2,7.7c-0.7,0-1.5,0-2.2,0c-0.1,0-0.2,0-0.3,0c0-0.9,0-1.7,0-2.5c0.8,0,1.7,0,2.5,0
		C65.2,6,65.2,6.8,65.2,7.7z"/>
	<path class="st0" d="M42,33.3c-0.8,0.1-1.7,0.2-2.5,0.3c-0.4-2.7-1.7-4.9-4-6.4c-1.6-1-3.3-1.5-5.1-1.5c-3.9,0.1-7.2,2.6-8.4,6.3
		s0.2,8.3,4.2,10.6c-0.4,0.7-0.8,1.5-1.2,2.2c-3.7-1.9-6.9-6.7-5.8-12.3c1.1-5.7,6.2-9.7,12-9.3C37.1,23.5,41.4,28.1,42,33.3z"/>
</g>
</svg>
