<?xml version="1.0" encoding="utf-8"?>
<!-- Generator: Adobe Illustrator 21.0.0, SVG Export Plug-In . SVG Version: 6.00 Build 0)  -->
<svg version="1.1" id="Layer_1" xmlns="http://www.w3.org/2000/svg" xmlns:xlink="http://www.w3.org/1999/xlink" x="0px" y="0px"
	 viewBox="0 0 100 80" style="enable-background:new 0 0 100 80;" xml:space="preserve">
<style type="text/css">
	.st0{fill:#E2CA84;}
</style>
<g>
	<path class="st0" d="M62.1,1c0.6,0.2,1.2,0.4,1.7,0.8c0.3,0.3,0.6,0.6,0.9,0.8c0.3,0.4,0.7,0.8,1,1.1c0.5,0.6,1.1,1.1,1.6,1.7
		c1,1,1.9,2,2.9,3.1c0.7,0.7,1.3,1.4,2,2.1c1.2,1.2,2.4,2.4,3.5,3.7c0.2,0.3,0.4,0.6,0.5,0.9c0,0,0,0.1,0.1,0.1
		c0.4,0.2,0.4,0.5,0.5,0.8c0.1,0.3,0.1,0.6,0.1,0.9c0,9,0,17.9,0,26.9c0,0.5,0.1,1.1-0.3,1.6c-0.2,0.3-0.5,0.6-0.8,0.5
		c-0.4,0-0.6-0.3-0.8-0.7c-0.1-0.2-0.1-0.5-0.1-0.7c0-8.7,0-17.4,0-26.2c0-0.1,0-0.3,0-0.4c-0.1,0-0.3,0-0.4,0c-2,0-4.1,0-6.1,0
		c-0.7,0-1.3,0.1-2,0.1c-1.1,0-2-0.4-2.9-1.1c-1.2-1.1-1.9-2.5-2.2-4.1c-0.1-0.7-0.2-1.5-0.2-2.2c0-2.2,0-4.4,0-6.6
		c0-0.1,0-0.3,0-0.5c-0.1,0-0.2,0-0.3,0c-12.5,0-25,0-37.5,0c-1.8,0-3.3,1-3.9,2.8c-0.1,0.4-0.2,0.8-0.2,1.2c0,21.8,0,43.6,0,65.4
		c0,1.3,0.4,2.5,1.5,3.3c0.5,0.4,1.1,0.7,1.7,0.7c0.7,0,1.4,0.1,2.1,0.1c10.1,0,20.2,0,30.4,0c1.1,0,1.6,0.8,1.5,1.7
		c-0.1,0.4-0.6,0.9-1.2,1c-0.3,0-0.6,0.1-0.9,0.1c-5.9,0-11.9,0-17.8,0c-2.7,0-5.4-0.1-8-0.1c-1.7,0-3.5,0.1-5.2,0.1
		c-1.6,0-2.9-0.5-4.1-1.5s-1.9-2.3-2.3-3.9c-0.1-0.3-0.1-0.6-0.1-0.8c0-22.1,0-44.2,0-66.4c0-1.4,0.5-2.8,1.4-3.9
		c0.8-1,1.7-1.8,3-2.2C21.6,1.1,22,1,22.4,0.9C35.5,1,48.8,1,62.1,1z M72.8,15.3c-0.9-1-1.8-2-2.7-2.9c-0.9-1-1.9-2-2.9-3.1
		c-1-1-2-2-3-3.1c0,0-0.1-0.1-0.2-0.2c-0.3-0.3-0.6-0.6-1-1c0,2,0,3.9,0,5.9c0,1.1,0.2,2.1,0.8,3c0.5,0.8,1.2,1.4,2.2,1.4
		C68.3,15.3,70.5,15.3,72.8,15.3z"/>
	<path class="st0" d="M58.6,74.4c0-1.3,0-2.6,0-3.9c0-0.7,0.3-1.3,0.7-1.8c0.7-0.9,1.5-1.7,2.3-2.5c0.9-1.1,1.9-2.1,2.8-3.2
		c0.7-0.8,1.3-1.5,2-2.3c1-1.2,2-2.3,3-3.5c0.5-0.6,1.1-1.2,1.6-1.8c0.7-0.8,1.4-1.6,2-2.4c0.4-0.4,0.7-0.8,1.1-1.2
		c0.5-0.6,1.1-1.1,1.6-1.7c0.6-0.6,1.3-0.9,2.1-1c1.6-0.2,2.9,0.4,3.9,1.6c0.4,0.5,0.8,0.9,1.2,1.4c0.7,0.8,1.5,1.6,2.1,2.5
		c0.5,0.7,0.7,1.5,0.7,2.3c0,1.1,0,2.1-0.6,3.1c-0.3,0.5-0.7,1-1.1,1.5c-0.8,1-1.6,1.9-2.4,2.9c-0.5,0.6-1,1.1-1.5,1.7
		c-0.7,0.8-1.3,1.5-2,2.3c-0.5,0.6-1,1.2-1.5,1.7c-0.8,0.9-1.6,1.8-2.3,2.7c-0.4,0.5-0.9,0.9-1.3,1.4c-0.7,0.8-1.4,1.6-2.1,2.4
		c-0.5,0.6-1.1,1.2-1.6,1.8c-0.4,0.5-0.8,0.9-1.3,1.3c-0.4,0.3-0.9,0.4-1.4,0.4C65.3,80,64,80,62.7,80c-0.8,0-1.7,0-2.6,0
		c-0.4,0-0.8-0.1-1.2-0.4c-0.3-0.3-0.4-0.6-0.4-1.1C58.6,77.2,58.6,75.8,58.6,74.4z M68.5,75c0.3-0.3,0.5-0.6,0.8-0.9
		c0.9-1,1.8-1.9,2.6-2.9c0.7-0.7,1.3-1.5,2-2.2c0.9-1,1.7-2,2.6-3c0.8-0.9,1.5-1.7,2.3-2.6c0.3-0.3,0.3-0.6,0-1
		c-0.2-0.2-0.4-0.5-0.5-0.7c-0.3-0.3-0.6-0.7-0.9-1c-0.5,0.5-1,1.1-1.5,1.6c-0.5,0.6-1,1.2-1.6,1.8c-0.7,0.8-1.3,1.6-2,2.4
		c-0.5,0.6-1.1,1.2-1.6,1.8c-0.8,0.9-1.6,1.9-2.5,2.8c-0.4,0.5-0.8,0.9-1.2,1.4c-0.2,0.2-0.2,0.5,0,0.7C67.4,73.9,67.9,74.4,68.5,75
		z M62.9,68.7c0.6,0.7,1.3,1.4,1.9,2.1c0.6-0.7,1.2-1.3,1.8-1.9c0.4-0.5,0.9-1,1.3-1.5c0.7-0.8,1.3-1.5,2-2.3
		c0.5-0.6,1.1-1.2,1.6-1.8c0.8-0.9,1.6-1.9,2.5-2.8c0.4-0.5,0.9-1,1.3-1.5c0.1-0.1,0.1-0.4,0.1-0.5c-0.5-0.7-1.1-1.3-1.7-1.9
		C70,60.6,66.4,64.6,62.9,68.7z M80.9,60.8c0.6-0.7,1.2-1.3,1.8-2c0.7-1,0.8-2,0-3c-0.4-0.5-0.8-0.9-1.2-1.4c-0.5-0.6-1-1.1-1.4-1.7
		c-0.5-0.6-1.4-1-2.1-0.8c-0.5,0.1-0.8,0.4-1.1,0.7c-0.5,0.6-1,1.2-1.5,1.8C77.2,56.7,79.1,58.7,80.9,60.8z M61.2,70.9
		c0,2.1,0,4.1,0,6.2c1.8,0,3.6,0,5.4,0C64.8,75,63,73,61.2,70.9z"/>
	<path class="st0" d="M38.9,60.3c0,1.4,0,2.7,0,4.1c0,1.1-0.7,1.6-1.6,1.6c-2.3,0-4.5,0-6.8,0c-0.7,0-1.3-0.2-1.5-1.1
		c0-0.1,0-0.1,0-0.2c0-1.5,0-2.9,0-4.4c0-0.7,0-1.4,0-2.1c0-0.8,0-1.6,0.1-2.4c0.1-0.8,0.5-1.2,1.3-1.2c2.4,0,4.9,0,7.3,0
		c0.8,0,1.3,0.5,1.3,1.4C38.9,57.4,38.9,58.8,38.9,60.3z M31.5,63c0.1,0,0.1,0,0.1,0c1.4,0,2.8,0,4.2,0c0.3,0,0.6-0.3,0.6-0.6
		c0-1.4,0-2.8,0-4.1c0-0.4-0.3-0.8-0.5-0.8c-0.4,0-0.8-0.1-1.2-0.1c-0.8,0-1.6,0-2.4,0.1c-0.5,0-0.7,0.2-0.7,0.7c0,1.3,0,2.6,0,3.9
		C31.5,62.4,31.5,62.7,31.5,63z"/>
	<path class="st0" d="M38.9,26.6c0,1.4,0,2.8,0,4.2c0,0.8-0.5,1.5-1.2,1.4c-0.3,0-0.6,0.1-0.9,0.1c-2,0-4.1,0-6.1,0
		c-0.3,0-0.6-0.1-0.9-0.1c-0.4-0.1-0.7-0.6-0.7-1c0-1.4,0-2.8-0.1-4.3c0-0.5,0-0.9,0-1.4c0-1.1,0-2.2,0.1-3.3c0-0.6,0.5-1.1,1.3-1.1
		c2.4,0,4.8,0,7.3,0c0.8,0,1.3,0.3,1.4,1.4C38.9,23.7,38.9,25.1,38.9,26.6z M31.6,23.9c0,1.8,0,3.7,0,5.5c1.6,0,3.2,0,4.7,0
		c0-1.8,0-3.6,0-5.5C34.7,23.9,33.2,23.9,31.6,23.9z"/>
	<path class="st0" d="M32.5,45.3c0.5-0.8,0.9-1.6,1.4-2.4c0.9-1.6,1.8-3.1,2.7-4.7c0.3-0.4,0.8-0.6,1.3-0.5c0.6,0.2,0.9,0.6,1,1.1
		c0,0.7-0.3,1.2-0.6,1.7c-0.6,1-1.2,2-1.7,3c-0.6,1-1.2,2.1-1.8,3.1c-0.2,0.4-0.5,0.8-0.7,1.3c-0.3,0.5-0.7,1-1.4,0.9
		c-0.3,0-0.6-0.2-0.8-0.3c-0.6-0.6-1.2-1.3-1.8-2c-0.3-0.3-0.5-0.6-0.8-0.9c-0.5-0.7-0.3-2,0.7-2.3c0.5-0.1,0.9,0.1,1.2,0.4
		c0.4,0.4,0.8,0.9,1.2,1.3C32.3,45.2,32.4,45.2,32.5,45.3z"/>
	<path class="st0" d="M51.2,23.8c-2,0-4,0-5.9,0c-1.3,0-1.7-1.2-1.4-2c0.2-0.6,0.7-0.9,1.3-0.9c4,0,8,0,12,0c0.5,0,1.1,0.1,1.3,0.7
		c0.3,0.9,0,2.2-1.3,2.2C55.2,23.8,53.2,23.8,51.2,23.8z"/>
	<path class="st0" d="M58.6,40.5c-2,0-4,0-6.1,0c-1.1,0-1.5-0.8-1.3-1.7c0.1-0.8,0.6-1,1.3-1c4,0,8.1,0,12.1,0c1,0,1.5,0.7,1.3,1.7
		c-0.2,0.8-0.5,1.1-1.3,1.1C62.6,40.5,60.6,40.5,58.6,40.5z"/>
	<path class="st0" d="M50,63c1.6,0,3.1,0,4.7,0c0.7,0,1.3,0.4,1.4,1c0.2,0.9-0.1,1.7-1.2,1.9c-0.3,0-0.5,0.1-0.8,0.1
		c-2.9,0-5.7,0-8.6,0c-0.4,0-0.8-0.1-1.1-0.3c-0.6-0.3-0.8-1.1-0.5-1.7c0.2-0.5,0.8-0.9,1.4-0.9C46.8,63,48.4,63,50,63z"/>
	<path class="st0" d="M62.3,29.4c1.5,0,3.1,0,4.6,0c0.2,0,0.5,0,0.7,0.1c0.3,0.1,0.6,0.3,0.7,0.6c0.3,0.6,0.2,1.6-0.4,1.9
		c-0.3,0.1-0.6,0.2-0.9,0.2c-3.1,0-6.3,0-9.4,0c-0.8,0-1.3-0.2-1.4-0.9c-0.1-0.7-0.2-1.4,0.7-1.8c0.2-0.1,0.5-0.1,0.7-0.1
		C59.2,29.3,60.7,29.4,62.3,29.4z"/>
	<path class="st0" d="M50,46.2c1.6,0,3.2,0,4.8,0c0.8,0,1.2,0.5,1.3,1.1c0.1,0.4,0.1,0.9-0.2,1.2s-0.6,0.4-1,0.4c-3.3,0-6.6,0-9.9,0
		c-1,0-1.3-0.8-1.2-1.7c0.1-0.8,0.7-1.1,1.4-1.1C46.8,46.2,48.4,46.2,50,46.2z"/>
	<path class="st0" d="M49.9,57.4c-1.6,0-3.2,0-4.8,0c-1,0-1.5-0.8-1.3-1.7c0.1-0.8,0.6-1.1,1.4-1.1c3.2,0,6.3,0,9.5,0
		c0.7,0,1.4,0.6,1.4,1.4c0,1-0.6,1.4-1.4,1.4C53.1,57.4,51.5,57.4,49.9,57.4z"/>
	<path class="st0" d="M48.7,29.4c1.2,0,2.4,0,3.6,0c0.7,0,1.2,0.3,1.3,0.8c0.3,1.2-0.1,2-1.4,2c-2.3,0-4.7,0-7,0
		c-0.5,0-1-0.1-1.3-0.7c-0.3-0.6-0.3-1.1,0-1.7c0.3-0.4,0.8-0.5,1.2-0.5C46.4,29.3,47.6,29.4,48.7,29.4z"/>
	<path class="st0" d="M63.5,46.2c1.2,0,2.3,0,3.5,0c0.9,0,1.5,0.5,1.5,1.5c0,0.4-0.1,0.8-0.4,1c-0.2,0.2-0.5,0.3-0.8,0.3
		c-2.5,0-5,0-7.5,0c-0.8,0-1.4-0.8-1.2-1.6c0.1-0.5,0.3-1,0.9-1.2c0.1,0,0.2,0,0.4,0C61.1,46.2,62.3,46.2,63.5,46.2z"/>
	<path class="st0" d="M46.2,37.7c0.5,0,1.1,0,1.6,0.1c0.6,0.1,0.9,0.5,0.9,1.1c0,0.3,0,0.7-0.1,1c-0.1,0.4-0.5,0.6-0.9,0.6
		c-0.6,0.1-1.1,0.1-1.7,0.1c-0.4,0-0.8,0-1.2-0.1c-0.5,0-0.9-0.4-1-1c-0.1-0.7,0-1.5,1-1.7c0.1,0,0.2,0,0.3,0
		C45.5,37.8,45.9,37.8,46.2,37.7C46.2,37.8,46.2,37.7,46.2,37.7z"/>
	<path class="st0" d="M61,57.4c-0.5,0-1,0.1-1.5,0c-0.9-0.2-1.3-1.3-0.8-2.1c0.3-0.4,0.6-0.6,1.1-0.6c0.7,0,1.5,0,2.2,0
		s1.4,0.7,1.4,1.4c0,0.5,0,1-0.5,1.2c-0.2,0.1-0.5,0.2-0.7,0.2C61.9,57.4,61.4,57.4,61,57.4L61,57.4z"/>
</g>
</svg>
