<?xml version="1.0" encoding="utf-8"?>
<!-- Generator: Adobe Illustrator 21.0.0, SVG Export Plug-In . SVG Version: 6.00 Build 0)  -->
<svg version="1.1" id="Layer_1" xmlns="http://www.w3.org/2000/svg" xmlns:xlink="http://www.w3.org/1999/xlink" x="0px" y="0px"
	 viewBox="0 0 100 80" style="enable-background:new 0 0 100 80;" xml:space="preserve">
<style type="text/css">
	.st0{fill:#E2CA84;}
</style>
<g>
	<path class="st0" d="M67.8,12.7c-0.4,0-0.8,0-1.1,0c-14.5,0-28.9,0-43.4,0c-0.4,0-0.4,0.1-0.4,0.4c0,1.2,0,2.4,0,3.5
		c0,0.4-0.4,0.9-0.9,1c-0.6,0.1-1,0-1.4-0.4c-0.2-0.2-0.3-0.6-0.3-0.8c0-1,0-1.9,0-2.9c0-0.3,0-0.5-0.1-0.8c0-0.1-0.1-0.2-0.2-0.2
		c-0.7-0.3-1.4-0.7-2.1-1c-0.5-0.2-1-0.5-1.5-0.8c0,0.2,0,0.3,0,0.5c0,0.1,0,0.2,0,0.4c0,15.7,0,31.4,0,47.1c0,1.1,0.1,2.1,0.5,3.1
		c0.5,1.3,1.5,2.2,2.8,2.6c0.2,0.1,0.4,0.1,0.6,0.1c0-0.2,0-0.3,0-0.5c0-0.1,0-0.1,0-0.2c0-14.3,0-28.5,0-42.8c0-0.4,0-0.9,0.4-1.2
		c0.3-0.4,0.7-0.5,1.2-0.4c0.4,0.1,0.8,0.2,0.9,0.7c0.1,0.4,0.2,0.8,0.2,1.2c0,14.3,0,28.6,0,42.9c0,0.5,0,0.5,0.5,0.5
		c3.6,0,7.2,0,10.9,0c0.6,0,1.2,0,1.7,0.4c0.7,0.4,0.7,1,0.4,1.5c-0.1,0.3-0.5,0.5-0.7,0.6c-0.4,0.1-0.9,0.1-1.3,0.1
		c-0.1,0-0.2,0-0.3,0c-4.5,0-9.1,0-13.6,0c-0.8,0-1.5-0.2-2.3-0.5c-0.6-0.2-1.2-0.6-1.7-1c-0.4-0.3-0.7-0.8-1.1-1.2
		c-0.6-0.6-1-1.4-1.2-2.2s-0.4-1.6-0.4-2.4c0-18.1,0-36.3,0-54.4c0-1.3,0.5-2.5,1.5-3.3c0.6-0.5,1.3-1,2.1-0.9c0.1,0,0.3,0,0.4,0
		c15.8,0,31.7,0,47.5,0c0.4,0,0.7-0.1,1,0.2c0.4,0.3,0.7,1,0.5,1.5c-0.1,0.3-0.4,0.5-0.6,0.7c-0.3,0.3-0.8,0.4-1,0.7
		c-0.4,0.4-0.4,1-0.2,1.5c0.3,1.1,0.9,2,1.7,2.7c0.9,0.8,1.9,1.2,2.9,1.6c0.5,0.2,0.6,0.6,0.7,1c0,0.1,0,0.2,0,0.2
		c0,18,0,36.1,0,54.1c0,0.3,0,0.6-0.1,0.8c-0.1,0.4-0.6,0.8-1,0.8c-0.6,0-1.1,0-1.7,0c-2.5,0-5,0-7.5,0c-1.1,0-1.5-0.8-1.2-1.8
		c0.1-0.4,0.5-0.6,0.9-0.7c0.2-0.1,0.5-0.1,0.7-0.1c2.4,0,4.7,0,7.1,0c0.3,0,0.2-0.2,0.2-0.3c0-0.3-0.1-0.6-0.1-0.9
		c0-16.7,0-33.3,0-50C67.8,13.2,67.8,13,67.8,12.7z M64.5,10.1c-0.4-0.7-0.9-1.2-1.2-1.8c-0.7-1.3-1.1-2.7-0.6-4.1
		c0-0.1-0.1-0.3-0.2-0.3c-0.3,0-0.7,0-1,0c-14.4,0-28.7,0-43.1,0c-0.2,0-0.5,0-0.7,0.1c-0.9,0.3-1.2,0.9-1.1,1.6
		c0,0.5,0.2,0.9,0.4,1.4c0.3,0.7,0.8,1.2,1.4,1.7c1.2,1,2.5,1.4,4,1.4c13.5,0,26.9,0,40.4,0C63.3,10.1,63.9,10.1,64.5,10.1z"/>
	<path class="st0" d="M33.6,26.7c-0.4-0.1-0.8-0.2-1.2-0.4c-0.2-0.1-0.4-0.3-0.3-0.7c0-0.2-0.1-0.4,0-0.6c0.3-0.6,0.8-0.7,1.4-0.7
		c1.6,0,3.1,0,4.7,0c1.7,0,3.5,0,5.2,0c0.4,0,0.8,0,1.2-0.1c0-0.3,0.1-0.6,0-0.9c0-0.1-0.1-0.3-0.3-0.3c-1.4-0.7-2.2-2.3-1.7-3.9
		c0.3-1,1-1.8,2.1-2.1c0.7-0.2,1.5-0.2,2.2,0.1c0.9,0.4,1.5,1,1.9,2c0.4,1.2,0.1,2.6-0.9,3.4c-0.3,0.3-0.7,0.5-1,0.7
		c0,0.3,0,0.7,0.1,1.2c0.4,0,0.8,0,1.2,0c2.6,0,5.2,0,7.7,0c0.9,0,1.8,0,2.7,0c0.4,0,0.7,0.4,0.8,0.7c0.2,0.5,0.1,0.8-0.2,1.1
		c-0.3,0.3-0.7,0.4-1.1,0.4c-0.1,0-0.2,0-0.2,0.1c0,0,0,0.1,0,0.2c0.3,0.6,0.6,1.2,1,1.8c0.5,1,1,1.9,1.5,2.9
		c0.4,0.9,0.9,1.8,1.3,2.7c0.1,0.2,0.2,0.3,0.4,0.3c0.4,0,0.8,0,1.1,0.2s0.5,0.5,0.5,0.8c0,1.4-0.3,2.6-1,3.8
		c-0.3,0.5-0.7,1-1.1,1.5c-0.1,0.1-0.2,0.1-0.3,0.2c0,0.5,0,0.9,0,1.3c0,3,0,5.9,0,8.9c0,1.3,0.1,2.6,0,3.9c0,0.9-0.2,1.8-0.4,2.6
		s-0.4,1.6-0.7,2.4c-0.3,0.9-0.7,1.7-1.2,2.6c-0.6,1.1-1.3,2.1-1.9,3.1c0,0-0.1,0.1-0.1,0.3c0,1.3,0,2.5,0,3.8c0,0,0,0.1,0,0.2
		c0.5,0,1.1,0,1.7,0c0.2,0,0.4,0.1,0.7,0.1c0.7,0.2,0.8,0.8,0.8,1.3c0,2.8,0,5.5,0,8.3c0,0,0,0.1,0,0.2c-0.9,0-1.7,0-2.6,0
		c0-0.1,0-0.2,0-0.3c0-2.2,0-4.5,0-6.7c0-0.2-0.1-0.3-0.3-0.3c-0.3,0-0.7,0-1,0c-6.2,0-12.4,0-18.6,0c-0.1,0-0.3,0-0.4,0
		c0,2.5,0,4.9,0,7.3c-0.9,0-1.7,0-2.6,0c0-0.1,0-0.3,0-0.4c0-2.5,0-4.9,0-7.4c0-0.2,0-0.5,0-0.7c0.2-1.2,0.5-1.3,1.5-1.4
		c0.5,0,0.9,0,1.4,0c0.3,0,0.4,0,0.4-0.4c0-1.4,0-2.9,0-4.3c0-0.3,0-0.6,0-0.9s-0.2-0.5-0.4-0.7c-1-0.7-2-1.5-3-2.2
		c-1.2-0.9-2.5-1.7-3.6-2.6c-0.7-0.6-1.2-1.4-1.3-2.4c-0.2-1.6-0.3-3.2-0.4-4.7c-0.1-1-0.1-2.1-0.2-3.1c-0.1-1.1-0.2-2.1-0.2-3.2
		c-0.1-1.3-0.1-2.7-0.1-4c0-0.3,0.2-0.7,0.3-1c0-0.1,0.1-0.3,0-0.4c-0.7-0.9-1.1-2-1.3-3.1c-0.1-0.5-0.1-1-0.1-1.5s0.6-1,1-0.9
		c0.7,0.1,1-0.2,1.3-0.8c0.7-1.5,1.4-2.9,2.1-4.3C32.7,28.5,33.1,27.6,33.6,26.7C33.6,26.7,33.6,26.6,33.6,26.7z M40.6,70.1
		c0.2,0,0.3,0,0.4,0c4.3,0,8.7,0,13,0c0.2,0,0.3-0.1,0.3-0.3c0-1.1,0.1-2.2,0-3.3c-0.1-0.9,0.2-1.7,0.7-2.4c0.3-0.4,0.6-0.7,0.8-1
		c0.7-1.2,1.4-2.5,1.9-3.7c0.5-1.1,0.8-2.3,0.8-3.6c0-6.3,0-12.5,0-18.8c0-0.2,0-0.4-0.1-0.7c-0.2-0.6-0.6-0.9-1.2-0.9
		c-0.5,0-1,0.4-1,0.9c-0.1,0.4-0.1,0.8-0.1,1.1c0,2.1,0,4.1,0,6.2c0,0.5-0.1,1.1-0.7,1.3c-0.5,0.2-1,0.2-1.4-0.1
		c-0.1-0.1-0.2-0.2-0.2-0.3c-0.3-0.4-0.2-0.9-0.2-1.4c0-2.6,0-5.2,0-7.8c0-0.4-0.1-0.8-0.1-1.2c-0.1-0.6-0.6-1-1.2-1
		c-0.6,0.1-1,0.6-1,1.2c0,2.8,0,5.6,0,8.4c0,0.4-0.1,0.8-0.1,1.3c-0.1,0.4-0.4,0.7-0.8,0.9C50,45,49.5,45,49.1,44.7
		c-0.5-0.4-0.5-0.9-0.5-1.4c0-3.9,0-7.9,0-11.8c0-0.8-0.4-1.3-1.2-1.3c-0.6,0-1.2,0.6-1.2,1.3c0,2.6,0,5.3,0,7.9c0,1.4,0,2.9,0,4.3
		c0,0.9-0.4,1.3-1.3,1.3c-0.8,0-1.2-0.4-1.2-1.2c0-3,0-6,0-9c0-0.2-0.1-0.5-0.1-0.7c-0.1-0.5-0.8-0.8-1.2-0.8c-0.5,0.1-1,0.6-1,1.1
		c0,0.2,0,0.3,0,0.5c0,5.7,0,11.5,0,17.2c0,0.4-0.1,0.7-0.2,1.1c-0.2,0.9-0.9,0.9-1.5,0.7c-0.5-0.1-0.9-0.4-1.3-0.7
		c-0.6-0.3-1.1-0.6-1.7-1c-0.3-0.2-0.5-0.3-0.7-0.6c-0.4-0.4-0.3-1-0.4-1.6c0-0.7,0-1.4-0.1-2.1c-0.1-0.8-0.3-1.6-0.5-2.3
		c-0.2-0.6-0.4-1.2-0.7-1.8c-0.2-0.3-0.5-0.7-0.8-0.8c-0.4-0.2-0.9-0.3-1.4-0.4c-0.4-0.1-0.6,0.1-0.6,0.5c0,0.5,0.1,1.1,0.1,1.6
		c0.1,1.1,0.2,2.2,0.2,3.3c0.1,0.8,0.1,1.6,0.1,2.4c0.1,1.4,0.1,2.9,0.2,4.3c0,1.1,0.3,2,1.3,2.7c0.9,0.6,1.8,1.3,2.8,2
		c1.1,0.8,2.2,1.6,3.3,2.4c0.6,0.5,1.1,1,1.2,1.8c0,0.6-0.1,1.3-0.1,1.9C40.6,67.1,40.6,68.5,40.6,70.1z M38.9,38.3L38.9,38.3
		c0-0.3,0-0.7,0-1c0-0.6,0-0.6-0.6-0.6c-1.2,0-2.4,0-3.7,0s-2.7,0-4,0c-0.4,0-0.5,0.1-0.4,0.5c0.3,0.9,0.8,1.8,1.5,2.4
		c0.2,0.2,0.5,0.4,0.8,0.5c0.6,0.1,1.3,0.3,1.9,0.6c0.3,0.2,0.7,0.4,1,0.4c1.2,0,2.3-0.3,3.2-1c0.1-0.1,0.2-0.2,0.2-0.3
		C38.9,39.2,38.9,38.8,38.9,38.3z M43.7,30.8c0.3-0.5,0.5-1,0.7-1.4c0.1-0.1,0.1-0.2,0.1-0.4c0-0.7,0-1.5,0-2.2
		c0-0.2-0.1-0.2-0.2-0.3c-0.3,0-0.6-0.1-0.9,0c-2,0-3.9,0-5.9,0.1c-0.1,0-0.1,0-0.2,0c0.9,1.7,1.7,3.5,2.6,5.2
		C41.1,30.7,42.4,30.6,43.7,30.8z M38.7,34.4c-0.1-0.2-0.1-0.3-0.2-0.5c-0.9-1.9-1.9-3.7-2.8-5.6c0-0.1-0.1-0.2-0.1-0.2
		c-0.1,0-0.2,0.1-0.2,0.2c-0.2,0.4-0.4,0.8-0.6,1.1c-0.7,1.3-1.3,2.7-2,4.1c-0.1,0.3-0.3,0.6-0.4,0.9C34.5,34.4,36.5,34.4,38.7,34.4
		z M54,26.5c-2.4-0.1-4.8-0.1-7.3,0c0,0.3,0,0.6,0,0.9c0,0.1,0.1,0.2,0.2,0.2c0.2,0,0.5,0.1,0.7,0c0.7-0.1,1.3,0.1,1.8,0.4
		c0.9,0.5,1.4,1.4,1.8,2.4c0,0.1,0.2,0.3,0.2,0.3c0.2-0.1,0.5-0.1,0.6-0.3C52.7,29.2,53.4,27.9,54,26.5z M58.3,32.8
		c-0.1-0.3-0.3-0.6-0.4-0.9c-0.6-1.1-1.2-2.3-1.8-3.4c-0.1-0.1-0.1-0.2-0.2-0.3c-0.1,0.1-0.2,0.2-0.2,0.3c-0.4,0.8-0.9,1.6-1.3,2.5
		c0,0.1,0,0.3,0.1,0.3c0.3,0.3,0.7,0.6,1,0.9c0.2,0.2,0.3,0.4,0.5,0.6c0.1,0.1,0.2,0.1,0.3,0.1C56.9,32.9,57.5,32.8,58.3,32.8z
		 M38.8,42.6c-0.5,0.2-1,0.3-1.5,0.5c-0.2,0.1-0.3,0.1-0.2,0.3c0.3,1,0.7,1.9,0.9,2.9c0.2,1.1,0.2,2.2,0.3,3.4
		c0,0.3,0.2,0.5,0.6,0.5C38.8,47.7,38.8,45.2,38.8,42.6z"/>
</g>
</svg>
