<?xml version="1.0" encoding="utf-8"?>
<!-- Generator: Adobe Illustrator 21.0.0, SVG Export Plug-In . SVG Version: 6.00 Build 0)  -->
<svg version="1.1" id="Layer_1" xmlns="http://www.w3.org/2000/svg" xmlns:xlink="http://www.w3.org/1999/xlink" x="0px" y="0px"
	 viewBox="0 0 100 80" style="enable-background:new 0 0 100 80;" xml:space="preserve">
<style type="text/css">
	.st0{fill:#E2CA84;}
</style>
<g>
	<path class="st0" d="M66.4,68.8c-0.2-0.5-0.5-1-0.6-1.6c-0.1-0.5-0.3-1-0.3-1.6c0-1,0-2,0-2.9c0-2.6,0.1-5.2,0.1-7.8
		c0-1.2-0.1-2.3-0.1-3.5c0-8.5,0-16.9,0-25.4c0-3.6,0-7.2-0.1-10.9c0-1.5-1.1-2.9-2.7-3.1c-1.6-0.2-2.8,0.5-3.4,1.6
		C59.1,14,59,14.4,59,14.9c0,1.8,0,3.3,0,4.9c0,11.8,0,23.6,0,35.4c0,1.4-0.5,2.6-1.3,3.7c-0.9,1.1-2.1,1.7-3.5,2
		c-0.3,0.1-0.7,0.1-1,0.1c-11.7,0-23.5,0-35.2,0c-1.5,0-2.9-0.4-4.3-1c-1.2-0.5-2.2-1.3-3.2-2.2c-1.7-1.7-2.9-3.6-3.3-6
		C7.1,51.1,7,50.4,7,49.7C7,33.8,7,17.9,7,2c0-0.5,0.2-0.9,0.5-1.2c0.1-0.1,0.2-0.1,0.4-0.2c0.1,0,0.2,0,0.3,0c13.5,0,27,0,40.5,0
		c0.7,0,1.1,0.4,1.2,1.1c0,0.4,0.1,0.7,0.1,1.1c0,15.8,0,31.6,0,47.4c0,0.8-0.1,1.7-0.1,2.5c0,0.9,0,1.8,0.1,2.6
		c0.2,1.6,1.4,3,3.2,3c0.9,0,1.7-0.3,2.3-0.9c0.6-0.6,1-1.4,1-2.3c0-13.1,0-26.2,0-39.3c0-1.3,0.2-2.6,1-3.7c-0.2,0-0.3,0-0.4,0
		c-1.5,0-2.9,0-4.4,0c-0.6,0-1.1-0.3-1.3-0.8c-0.3-0.9,0.3-1.8,1.3-1.8c2.4,0,4.9,0,7.3,0c0.8,0,1.7,0,2.5,0
		c2.4,0.1,4.6,1.4,5.3,3.9c0.2,0.6,0.3,1.4,0.3,2c0,2.2,0,4.4,0,6.6c0,14.4,0,28.8,0.1,43.3c0,1,0.2,1.9,1,2.6
		c0.5,0.5,1.1,0.8,1.8,0.9c1.7,0.3,3.3-0.9,3.6-2.4c0.1-0.4,0.2-0.9,0.2-1.3c0-1.1,0-2.2,0-3.4c0-7.3-0.1-14.7-0.1-22
		c0-1.8,0.1-3.6,0.1-5.4c0-1.1,0-2.2-0.1-3.3c0-1.3,0.3-2.6,1-3.7v-0.1c-0.5,0-1.1,0-1.6,0c-1.1,0-2.2,0-3.2,0
		c-1.3,0-1.6-1.2-1.1-1.9c0.3-0.4,0.7-0.6,1.1-0.6c3.4,0,6.9,0,10.3,0c1.2,0,2.2,0.6,3.1,1.3c1.1,0.8,1.6,2,2.1,3.2
		c0,0.1,0,0.2,0,0.3c0,16.6,0,33.1,0,49.7c0,0.2-0.1,0.4-0.3,0.5c-0.4,0.3-0.8,0.4-1.3,0.4c-13.3,0-26.6,0-39.9,0
		c-0.5,0-1-0.1-1.2-0.5c-0.1-0.2-0.2-0.4-0.2-0.7c0-1.6,0-3.2,0-4.9c0-0.6,0.5-1.1,1-1.2c0.8-0.1,1.3,0.3,1.4,0.9
		c0.1,0.4,0.1,0.8,0.1,1.1c0,0.9,0,1.7,0,2.6c12.6,0,25.2,0,37.9,0c0-0.1,0-0.2,0-0.4c0-15.5,0-31,0-46.4c0-1.8-0.9-2.9-2.7-3.3
		c-1.6-0.3-3.5,0.9-3.7,2.6c0,0.2-0.1,0.5-0.1,0.7c0,11.5,0,23.1,0,34.6c0,1.5-0.4,2.9-1.3,4.1c-0.8,1.1-2,1.7-3.3,2
		c-0.4,0.1-0.8,0.1-1.2,0.1c-12.3,0-24.6,0-37,0c-1.4,0-2.8-0.4-3.9-1.5c-0.8-0.8-1.4-1.8-1.5-2.9s-0.1-2.3-0.1-3.4
		c0-0.5,0.1-1,0.6-1.2c0.9-0.4,1.9-0.1,1.9,1.1c0,0.7,0,1.5,0,2.2c0,0.9,0.3,1.7,1,2.3c0.5,0.4,1,0.7,1.7,0.7c10.7,0,21.4,0,32.1,0
		C66.3,68.8,66.4,68.8,66.4,68.8z M9.4,3.2c0,0.2,0,0.3,0,0.5c0,15.1,0,30.3,0,45.4c0,0.8,0.1,1.7,0.3,2.5c0.3,1.4,0.9,2.7,1.9,3.8
		c0.9,1,2,1.9,3.3,2.4c0.9,0.4,1.8,0.7,2.8,0.7c1.9,0.1,3.8,0.1,5.7,0.1c8.2,0,16.4,0,24.6,0c0.1,0,0.2,0,0.4,0
		c-0.8-1.2-1-2.4-1-3.8c0-17,0-34,0-51c0-0.1,0-0.3,0-0.4C34.7,3.2,22.1,3.2,9.4,3.2z"/>
	<path class="st0" d="M28.3,31.1c-4.3,0-8.7,0-13,0c-1.2,0-1.6-1.1-1.2-1.9c0.3-0.5,0.8-0.6,1.3-0.6c0.2,0,0.3,0,0.5,0
		c8.5,0,16.9,0,25.4,0c0.3,0,0.7,0.1,1,0.2c0.5,0.2,0.7,0.8,0.5,1.4c-0.1,0.4-0.4,0.7-0.9,0.8c-0.2,0-0.4,0.1-0.6,0.1
		C37,31.1,32.6,31.1,28.3,31.1z"/>
	<path class="st0" d="M28.3,47.7c-4.3,0-8.7,0-13,0c-0.7,0-1.2-0.3-1.3-0.9c-0.2-0.8,0-1.5,1-1.6c0.3-0.1,0.6-0.1,0.9-0.1
		c8.5,0,16.9,0,25.4,0c0.8,0,1.2,0.3,1.4,1.1c0.1,0.5-0.2,1.2-0.7,1.4c-0.3,0.1-0.6,0.1-0.8,0.1C36.9,47.7,32.6,47.7,28.3,47.7z"/>
	<path class="st0" d="M28.4,39.4c-4.3,0-8.7,0-13,0c-0.5,0-1-0.2-1.2-0.7c-0.3-0.8,0-1.5,0.8-1.8c0.2-0.1,0.4-0.1,0.6-0.1
		c8.6,0,17.3,0,25.9,0c0.5,0,1,0.1,1.3,0.6c0.4,0.9,0.1,1.9-1.2,2c-2.7,0-5.5,0-8.2,0C31.6,39.4,30,39.4,28.4,39.4z"/>
	<path class="st0" d="M28.4,14.4c-4.4,0-8.7,0-13.1,0c-0.5,0-0.9-0.1-1.2-0.6c-0.2-0.5-0.2-1,0.1-1.5c0.3-0.4,0.8-0.4,1.2-0.5
		c0.1,0,0.1,0,0.2,0c7.4,0,14.8,0,22.2,0c1.2,0,2.4,0,3.6,0.1c1,0.1,1.4,0.6,1.2,1.6c-0.1,0.4-0.8,0.9-1.2,0.9
		C37.1,14.4,32.7,14.4,28.4,14.4z"/>
	<path class="st0" d="M28.4,22.7c-4.4,0-8.7,0-13.1,0c-1.1,0-1.5-0.8-1.2-1.7c0.1-0.5,0.6-0.8,1.2-0.8h0.1c8.7,0,17.3,0,26,0
		c0.6,0,1.1,0.2,1.3,0.7c0.3,0.8,0.1,1.8-1.1,1.8C37.2,22.7,32.8,22.7,28.4,22.7z"/>
</g>
</svg>
