<?xml version="1.0" encoding="utf-8"?>
<!-- Generator: Adobe Illustrator 21.0.0, SVG Export Plug-In . SVG Version: 6.00 Build 0)  -->
<svg version="1.1" id="Layer_1" xmlns="http://www.w3.org/2000/svg" xmlns:xlink="http://www.w3.org/1999/xlink" x="0px" y="0px"
	 viewBox="0 0 100 80" style="enable-background:new 0 0 100 80;" xml:space="preserve">
<style type="text/css">
	.st0{fill:#E2CA84;}
</style>
<g>
	<path class="st0" d="M91.8,34c-1.3,0-2.2,0-3.2,0c-0.7,0-0.9-0.3-1.1-0.9c-0.7-2.2-1.3-4.4-2.2-6.5c-2.6-5.9-6.4-10.9-11.6-14.7
		c-3.9-2.9-8.2-5-12.8-6.5c-3.1-1-6.4-1.7-9.7-1.7c-2.7,0-5.4-0.1-8.1,0.3c-3.6,0.5-7,1.6-10.4,2.9c-1,0.4-1.9,0.9-2.9,1.4
		c0.3,0.6,0.5,1,0.7,1.3c0.2,0.4,0.5,0.8,0.7,1.1c14-6.9,27.4-5.7,40,3.1c7.1,4.9,11.2,12,13.1,20.4c-1.4,0.1-2.6,0.2-4.1,0.4
		c2.1,3.1,4.1,6,6.2,9.1C88.3,40.4,90,37.3,91.8,34z M10.2,47.5C15,69.7,38.5,82.6,60.7,76.2c-0.2-0.6-0.4-1.1-0.6-1.7
		c-0.3-0.8-0.7-0.9-1.5-0.7c-2.8,0.6-5.6,1.2-8.4,1.3c-2.9,0.1-5.8-0.1-8.6-0.6c-4.5-0.8-8.8-2.6-12.7-5.1c-3.6-2.3-6.9-5.1-9.4-8.5
		c-1.8-2.5-3.3-5.1-4.5-7.9c-0.7-1.8-1.2-3.6-1.8-5.6c1.4-0.2,2.7-0.3,4.1-0.5c-2.1-3.1-4.1-6-6.2-8.9c-1.7,3.2-3.4,6.3-5,9.5
		C7.6,47.5,8.8,47.5,10.2,47.5z"/>
	<path class="st0" d="M77,67.1c0.8-1.3,1.6-2.6,2.3-3.8c0.5-1,1.2-1.4,2.3-1.3c2,0.1,4.1-0.2,6,0.9c2.1,1.2,3.3,2.9,3.3,5.4
		c0,4,0,8,0,12.1c-9.4,0-18.7,0-28.1,0c0-4.4,0-8.8,0-13.2c-2.5,0.7-5,1.6-7.5,2.2c-4,0.9-8,1.1-12.1,0.3
		c-5.5-1.1-10.3-3.5-14.6-6.9c-4.7-3.7-8.1-8.5-9.7-14.4c-0.9-3.4-1.4-6.9-0.8-10.5c0.1-0.7,0.1-1.5,0.2-2.3c-3.8,0-7.6,0-11.5,0
		c0-1.5,0-2.8,0-4.2c0-2.7,0.1-5.3,0-8c-0.2-2.8,2.3-5.8,5-6.3c1.7-0.3,3.5-0.2,5.3-0.2c0.3,0,0.7,0.4,0.9,0.7
		c0.9,1.4,1.8,2.8,2.8,4.5c0.6-0.9,1.1-1.8,1.7-2.6c0.3-0.5,0.6-1,0.8-1.5c0.8-1.2,1.9-1.5,3.9-1.1c1.8,0.3,3.6,0.3,5.3-0.8
		c3.6-2.3,7.5-3.8,11.8-4.2c2-0.2,4.1-0.4,6.1-0.4c4,0,7.8,1,11.4,2.6c4.3,1.9,8.1,4.6,11.2,8.2c3.1,3.5,5.3,7.4,6.2,12
		c0.5,2.5,0.7,5,0.9,7.5c0.1,1-0.2,2-0.3,3c-0.1,0.9-0.2,1.6,0.8,2.1c0.9,0.5,1.7,1.3,2.4,2.1c2.4,3.1,0.9,7.7-2.3,9.4
		c-2,1-4,1.2-6.1,0.5c-0.9-0.3-1.3-0.3-1.9,0.5s-1.5,1.4-2.3,2.1c0.1,0.1,0.1,0.3,0.2,0.4c0.5,0,1,0.1,1.4,0
		c1.3-0.2,2.1,0.4,2.7,1.5c0.5,1,1.2,2,1.8,3C76.5,66.6,76.7,66.8,77,67.1z M61.4,42.2c-8.4,0-16.6,0-25,0c0.1,1.2,0.1,2.4,0.3,3.5
		c0.4,2.7,0.9,5.3,1.3,8c0.1,0.8,0.5,1,1.2,0.9c1.7-0.2,3.3-0.6,5-0.6c4.6,0,9.2-0.4,13.8,0.6c1.4,0.3,1.8,0.1,2-1.3
		c0.4-2.1,0.9-4.3,1.1-6.4C61.3,45.4,61.3,43.9,61.4,42.2z M59.5,26.7c-7.1,1.3-14.2,1.3-21.2,0c-1.2,2.9-2.3,10.6-1.8,12.5
		c8.2,0,16.5,0,24.8,0C61.2,35,60.8,30.9,59.5,26.7z M88,77.7c0-3.1,0.1-6.2,0-9.2c0-0.8-0.5-1.7-1-2.4c-1-1.4-2.5-1.2-3.9-1.3
		c-0.7,0-1.2,0.2-1.6,0.9c-1.4,2.3-3,4.6-4.5,7c-1.2-1.9-2.5-3.7-3.5-5.5c-1.3-2.3-2-2.7-4.5-2.3c-1.4,0.3-2.8,1.7-2.9,3
		c-0.1,2.5-0.2,5-0.2,7.4c0,0.8,0,1.6,0,2.5C73.2,77.7,80.5,77.7,88,77.7z M9.9,32.6c7.3,0,14.7,0,22.2,0c0-0.6-0.1-1-0.1-1.5
		c0-1.8-0.1-3.7,0-5.5c0.2-3.4-0.6-5.5-4.2-6c-1-0.1-1.9,0.1-2.6,1.2c-1.3,2.3-2.9,4.5-4.4,6.8c-1.4-2.1-2.7-4-3.9-6
		c-1.2-1.9-1.6-2.2-3.8-1.8c-1.7,0.3-3.1,1.2-3.1,3C9.8,26,9.9,29.3,9.9,32.6z M33.3,42.2c-4.1,0-8.1,0-12.1,0
		c0,0.2-0.1,0.3-0.1,0.4c0.4,3.3,1.1,6.6,2.6,9.5c0.9,1.7,2.1,3.3,3.3,4.9c0.2,0.3,0.8,0.4,1.2,0.4c2-0.5,4-1.1,5.9-1.7
		c0.7-0.2,1.2-0.4,0.8-1.3c-0.2-0.5-0.2-1.2-0.3-1.8C34.2,49.2,33.7,45.7,33.3,42.2z M76.6,39.2c-0.2-3.1-0.7-6-2.1-8.6
		c-1-2.1-2.3-4-3.6-5.9c-0.2-0.3-0.9-0.6-1.2-0.5c-2.2,0.5-4.3,1.2-6.4,1.8c-0.2,0.1-0.5,0.6-0.5,0.9c0.2,1.8,0.5,3.6,0.7,5.4
		c0.3,2.3,0.6,4.6,0.9,6.9C68.6,39.2,72.6,39.2,76.6,39.2z M58.6,23.9c-1.1-3.1-2.5-5.8-4.9-7.8c-3-2.5-7.2-2.4-10.1,0.3
		c-2.2,2-3.4,4.6-4.6,7.4C45.6,25,52,25.1,58.6,23.9z M39.2,57.7c0,0.1,0,0.3,0,0.4c1.1,2.6,2.4,5,4.5,7c2.2,2.1,6.8,2.8,9.2,0.8
		c0.9-0.7,1.7-1.4,2.5-2.3c1.5-1.7,2.5-3.8,3.1-6C55.7,56.5,41.5,56.5,39.2,57.7z M76.8,42.2c-4.1,0-8.1,0-12.2,0
		c-0.6,4.4-1.2,8.8-1.7,13.2c2.2,0.6,4.4,1.2,6.5,1.7c0.4,0.1,0.9,0,1.3-0.1c-0.1-0.4,0-0.9-0.2-1.3c-1.8-3.6,0-8.3,3.9-9.3
		c1.4-0.4,2.2-0.9,2.1-2.5C76.5,43.4,76.7,42.9,76.8,42.2z M81,52.7c0-2.2-1.7-3.9-4.1-3.9c-2.2,0-4.2,1.8-4.1,3.9
		c0.2,2.3,1.5,3.9,4.2,3.9C79.3,56.6,80.9,55,81,52.7z M21.1,39.2c4.2,0,8.3,0,12.4,0c0-1.3,0-2.4,0-3.7c-3.7,0-7.5,0-11.2,0
		c-0.7,0-0.8,0.4-0.9,0.9C21.4,37.4,21.2,38.2,21.1,39.2z M68.2,59.7c-2.1-0.5-4-1-5.9-1.5c-0.2,0-0.6,0.3-0.7,0.6
		c-0.6,0.9-1.1,1.9-1.6,2.8c-0.7,1.2-1.3,2.5-2,3.8C61.9,64.5,65.1,62.4,68.2,59.7z M61.9,23.4c1.9-0.5,3.9-1,6.2-1.6
		c-3.1-2.8-6.4-4.8-10.3-6C59.2,18.5,60.6,20.9,61.9,23.4z M39.7,65.6c-1.3-2.5-2.6-5-3.9-7.5c-2,0.5-4.1,1.1-6.2,1.6
		C32.7,62.5,36,64.4,39.7,65.6z M39.9,16.1c-0.1-0.1-0.1-0.2-0.2-0.4c-2,1-4,1.9-5.9,2.9c-0.1,0.1-0.3,0.4-0.2,0.6
		c0.5,1.2,0.9,2.4,1.5,3.6c0.3,0.6,0.9,0.6,1.2,0C37.5,20.6,38.7,18.4,39.9,16.1z"/>
	<path class="st0" d="M91.8,34c-1.8,3.3-3.4,6.4-5.2,9.8c-2.1-3.1-4.1-6-6.2-9.1c1.4-0.1,2.6-0.2,4.1-0.4c-1.9-8.4-6-15.5-13.1-20.4
		c-12.6-8.8-26-10-40-3.1c-0.2-0.3-0.5-0.7-0.7-1.1c-0.2-0.4-0.4-0.8-0.7-1.3c1-0.5,1.9-1,2.9-1.4c3.3-1.3,6.8-2.5,10.4-2.9
		c2.7-0.4,5.4-0.3,8.1-0.3c3.3,0,6.6,0.7,9.7,1.7C65.7,7,70,9.1,73.9,12c5.2,3.9,9.1,8.8,11.6,14.7c0.9,2.1,1.5,4.3,2.2,6.5
		c0.2,0.7,0.4,1,1.1,0.9C89.5,33.9,90.5,34,91.8,34z"/>
	<path class="st0" d="M10.2,47.5c-1.3,0-2.6,0-4.1,0c1.7-3.2,3.3-6.3,5-9.5c2,2.9,4,5.8,6.2,8.9c-1.4,0.2-2.7,0.3-4.1,0.5
		c0.6,2,1.1,3.8,1.8,5.6c1.1,2.8,2.6,5.5,4.5,7.9c2.6,3.5,5.8,6.2,9.4,8.5c3.9,2.5,8.2,4.2,12.7,5.1c2.8,0.5,5.8,0.8,8.6,0.6
		c2.8-0.1,5.6-0.7,8.4-1.3c0.9-0.2,1.3,0,1.5,0.7c0.2,0.6,0.4,1.1,0.6,1.7C38.5,82.6,15,69.7,10.2,47.5z"/>
	<path class="st0" d="M20.9,1.1c3.9-0.4,7.1,3.4,7,6.7c-0.1,3.8-3.2,6.7-7,6.7c-3.9,0-7.2-2.7-7.2-6.7C13.7,4,16.9,0.7,20.9,1.1z
		 M16.8,7.8c0.1,2.2,1.7,3.8,4.1,3.7c2.6-0.1,4-1.5,4.1-3.9c0-2.2-1.6-3.8-4-3.9C18.5,3.7,16.8,5.1,16.8,7.8z"/>
</g>
</svg>
