<?xml version="1.0" encoding="utf-8"?>
<!-- Generator: Adobe Illustrator 21.0.0, SVG Export Plug-In . SVG Version: 6.00 Build 0)  -->
<svg version="1.1" id="Layer_1" xmlns="http://www.w3.org/2000/svg" xmlns:xlink="http://www.w3.org/1999/xlink" x="0px" y="0px"
	 viewBox="0 0 100 80" style="enable-background:new 0 0 100 80;" xml:space="preserve">
<style type="text/css">
	.st0{fill:#E2CA84;}
</style>
<g>
	<path class="st0" d="M54.6,40.9c1,0,1.8,0,2.6,0c9.7,0,19.5,0,29.2,0c1.9,0,2.6,0.5,2.5,2.5c-0.1,11.4-0.1,22.7,0,34.1
		c0,1.9-0.6,2.4-2.5,2.4c-24.5,0-49.1,0-73.6,0c-1.9,0-2.6-0.6-2.5-2.5c0.1-24.7,0-49.4,0-74.2c0-1.9,0.6-2.4,2.4-2.4
		c13.2,0.1,26.5,0.1,39.7,0c1.8,0,2.1,0.8,2.1,2.3c0,11.8,0,23.5,0,35.3C54.6,39,54.6,39.7,54.6,40.9z M12.8,3.2c0,24.8,0,49.4,0,74
		c2.9,0,5.6,0,8.5,0c0-0.8,0-1.6,0-2.3c0-6.8,0.1-13.7,0-20.5c0-1.9,0.6-2.4,2.5-2.4c5.8,0.1,11.7,0.1,17.5,0c1.8,0,2.5,0.5,2.5,2.4
		c-0.1,6.9,0,13.8,0,20.8c0,0.7,0,1.4,0,2.1c2.4,0,4.4,0,6.6,0c0-0.5,0-0.9,0-1.3c0-11,0-22,0-33c0-0.7,0.3-1.8,0.6-1.9
		c1.5-0.2,1.3-1.2,1.3-2.2c0-11.4,0-22.8,0-34.2c0-0.4-0.1-0.9-0.1-1.4C39,3.2,26,3.2,12.8,3.2z M52.7,77.2c11.4,0,22.6,0,34,0
		c0-8,0-15.8,0-23.7c0-0.4-0.6-1-0.9-1c-3.1-0.1-6.3,0-9.6,0c0,3,0,5.8,0,8.6c0,0.6-0.3,1.5-0.8,1.6c-0.4,0.2-1.3-0.3-1.6-0.7
		c-1.4-1.4-2.7-3-4.1-4.7c-1.4,1.6-2.6,3.1-3.9,4.5c-0.5,0.5-1.2,0.7-1.8,1c-0.3-0.7-0.8-1.3-0.9-2c-0.1-2.7,0-5.4,0-8.2
		c-3.6,0-6.9,0-10.3,0C52.7,60.8,52.7,68.9,52.7,77.2z M23.8,54.4c0,7.7,0,15.3,0,22.8c5.9,0,11.6,0,17.4,0c0-7.6,0-15.2,0-22.8
		C35.4,54.4,29.7,54.4,23.8,54.4z M73.8,58.6c0-5.5,0-10.4,0-15.3c-2.9,0-5.6,0-8.2,0c0,5,0,9.8,0,15.1c1.1-1.2,1.9-2.1,2.7-3.1
		c1-1.2,1.8-1.1,2.8,0.1C71.8,56.3,72.7,57.2,73.8,58.6z M62.9,50c0-2.4,0-4.6,0-6.8c-3.5,0-6.8,0-10.1,0c0,2.3,0,4.5,0,6.8
		C56.2,50,59.6,50,62.9,50z M86.6,43.2c-3.5,0-6.8,0-10.2,0c0,2.3,0,4.5,0,6.8c3.5,0,6.8,0,10.2,0C86.6,47.7,86.6,45.5,86.6,43.2z"
		/>
	<path class="st0" d="M58,12.5c0.1-6.9,5.9-12.4,12.6-11.8C77.5,1.4,82.3,7.6,81,14.6c-0.4,2.1-0.9,4.2-1.8,6.1
		c-2.6,5.6-5.4,11.1-8.2,16.6c-0.8,1.6-1.8,1.7-2.6,0.3c-4.1-6.9-8-13.9-9.9-21.9C58.2,14.6,58.2,13.5,58,12.5z M69.6,35.1
		c3.8-6.7,7.2-13.1,9-20.1c1-3.8-0.4-7.7-3.5-10c-3-2.2-7-2.4-10.2-0.5c-3.2,1.9-5,5.6-4.3,9.5C61.9,21.5,65.9,28,69.6,35.1z"/>
	<path class="st0" d="M23.9,37.1c1.8,0,3.6,0,5.4,0c1.2,0,1.9,0.4,1.9,1.7c0,3.2,0,6.4,0,9.7c0,1.2-0.5,1.7-1.7,1.7
		c-3.8,0-7.6,0-11.5,0c-1.1,0-1.5-0.6-1.5-1.6c0-3.3,0-6.6,0-9.9c0-1.2,0.6-1.7,1.7-1.6C20.2,37.1,22,37.1,23.9,37.1z M18.9,39.5
		c0,2.9,0,5.5,0,8.2c3.3,0,6.5,0,9.8,0c0-2.8,0-5.5,0-8.2C25.4,39.5,22.3,39.5,18.9,39.5z"/>
	<path class="st0" d="M41.2,50.2c-1.7,0-3.5,0-5.2,0c-1.4,0-2.1-0.4-2.1-1.9c0.1-3.1,0-6.2,0-9.3c0-1.3,0.4-2,1.9-2
		c3.7,0,7.4,0,11.1,0c1.3,0,1.8,0.5,1.8,1.8c0,3.2-0.1,6.3,0,9.5c0,1.4-0.7,1.9-2,1.9C44.8,50.2,43,50.2,41.2,50.2z M36.3,39.6
		c0,2.8,0,5.5,0,8.1c3.4,0,6.6,0,9.7,0c0-2.8,0-5.4,0-8.1C42.8,39.6,39.6,39.6,36.3,39.6z"/>
	<path class="st0" d="M23.7,34.6c-1.8,0-3.6,0-5.4,0c-1.2,0-1.7-0.4-1.7-1.6c0-3.3,0-6.6,0-9.9c0-1.1,0.5-1.6,1.6-1.6
		c3.8,0,7.6,0,11.5,0c1.2,0,1.7,0.5,1.7,1.7c0,3.2,0,6.4,0,9.6c0,1.2-0.5,1.7-1.7,1.7C27.6,34.6,25.7,34.6,23.7,34.6z M28.8,24
		c-3.4,0-6.6,0-9.8,0c0,2.8,0,5.4,0,8c3.3,0,6.5,0,9.8,0C28.8,29.4,28.8,26.8,28.8,24z"/>
	<path class="st0" d="M41.2,34.6c-1.8,0-3.6,0-5.4,0c-1.3,0-1.9-0.4-1.9-1.7c0-3.2,0-6.4,0-9.6c0-1.2,0.5-1.7,1.7-1.7
		c3.8,0,7.5,0,11.3,0c1.3,0,1.8,0.6,1.8,1.8c0,3.1,0,6.3,0,9.4c0,1.3-0.5,1.8-1.8,1.8C44.9,34.6,43,34.6,41.2,34.6z M46.1,32.1
		c0-2.8,0-5.4,0-8c-3.3,0-6.6,0-9.8,0c0,2.8,0,5.3,0,8C39.6,32.1,42.7,32.1,46.1,32.1z"/>
	<path class="st0" d="M24,5.9c1.8,0,3.6,0,5.4,0c1.3,0,1.9,0.4,1.9,1.7c-0.1,3.2-0.1,6.3,0,9.5c0,1.3-0.5,1.8-1.8,1.8
		c-3.8,0-7.5,0-11.3,0.1c-1.1,0-1.6-0.5-1.6-1.6c0-3.3,0-6.6,0-9.9c0-1.3,0.6-1.6,1.8-1.6C20.2,5.9,22.1,5.9,24,5.9z M18.9,16.4
		c3.4,0,6.6,0,9.8,0c0-2.8,0-5.4,0-8.1c-3.3,0-6.6,0-9.8,0C18.9,11.1,18.9,13.7,18.9,16.4z"/>
	<path class="st0" d="M41.3,18.9c-1.8,0-3.6-0.1-5.4,0c-1.4,0.1-2-0.4-2-1.8c0-3.1,0-6.3,0-9.4c0-1.3,0.5-1.8,1.8-1.8
		c3.8,0.1,7.5,0,11.3,0c1.2,0,1.7,0.5,1.7,1.7c0,3.2,0,6.4,0,9.7c0,1.2-0.5,1.7-1.7,1.7C45,18.9,43.1,18.9,41.3,18.9z M46,16.4
		c0-2.9,0-5.5,0-8.1c-3.3,0-6.5,0-9.8,0c0,2.8,0,5.4,0,8.1C39.6,16.4,42.8,16.4,46,16.4z"/>
	<path class="st0" d="M60.7,66.8c0,2.4,0.1,4.8-0.1,7.2c0,0.6-0.8,1.2-1.2,1.8c-0.4-0.6-1-1.2-1.1-1.8c-0.1-2.4-0.1-4.8-0.1-7.6
		c-0.9,0.8-1.3,1.4-2,1.7c-0.5,0.2-1.2,0-1.8-0.1c0.1-0.5-0.1-1.3,0.2-1.6c1.2-1.4,2.4-2.7,3.8-3.8c0.4-0.3,1.5-0.2,2,0.1
		c1.2,1,2.4,2.2,3.4,3.4c0.4,0.5,0.3,1.3,0.4,2c-0.7-0.1-1.4-0.1-1.9-0.4s-0.7-0.9-1.1-1.4C61.1,66.5,60.9,66.7,60.7,66.8z"/>
	<path class="st0" d="M78.6,66.4c-0.8,0.8-1.3,1.4-2,1.7c-0.4,0.2-1.3,0.3-1.6,0c-0.3-0.3-0.3-1.3-0.1-1.6c1.3-1.5,2.7-2.8,4.1-4.1
		c0.3-0.3,1.3-0.1,1.7,0.3c1.3,1.1,2.5,2.3,3.5,3.6c0.4,0.4,0.2,1.3,0.3,1.9c-0.6-0.1-1.4-0.1-1.9-0.3c-0.5-0.3-0.8-0.9-1.2-1.3
		c-0.2,0-0.4,0.1-0.6,0.1c0,1.9,0,3.9,0,5.8c0,0.7,0.1,1.4-0.1,2c-0.2,0.5-0.8,0.8-1.2,1.2c-0.3-0.4-0.9-0.8-1-1.3
		c-0.1-2.2-0.1-4.4-0.1-6.6C78.7,67.5,78.6,67.1,78.6,66.4z"/>
	<path class="st0" d="M69.6,18.6c-3.7,0-6.5-2.9-6.4-6.6c0.1-3.5,2.9-6.4,6.4-6.4c3.6,0,6.4,2.9,6.4,6.5
		C76.1,15.9,73.3,18.6,69.6,18.6z M73.8,12c0-2.2-2-4.1-4.2-4c-2.2,0-4.1,1.9-4.1,4.1c0,2.3,2,4.3,4.3,4.2
		C72,16.2,73.8,14.2,73.8,12z"/>
</g>
</svg>
