<?xml version="1.0" encoding="utf-8"?>
<!-- Generator: Adobe Illustrator 21.0.0, SVG Export Plug-In . SVG Version: 6.00 Build 0)  -->
<svg version="1.1" id="Layer_1" xmlns="http://www.w3.org/2000/svg" xmlns:xlink="http://www.w3.org/1999/xlink" x="0px" y="0px"
	 viewBox="0 0 100 80" style="enable-background:new 0 0 100 80;" xml:space="preserve">
<style type="text/css">
	.st0{fill:#E2CA84;}
</style>
<g>
	<path class="st0" d="M66.6,11.4c0.1,0,0.2,0,0.4,0c4.9,0,9.7,0,14.6,0c1.2,0,2.3,0.4,3.1,1.3c0.3,0.3,0.5,0.9,0.8,1.3
		c0.4,0.5,0.2,1,0.2,1.6c0,18.5,0,37,0,55.5c0,0.6-0.2,1-0.4,1.5c-0.3,0.7-0.9,1.2-1.5,1.6c-0.5,0.2-1,0.4-1.5,0.5
		c-0.6,0.1-1.2,0.1-1.9,0.1c-16.4,0-32.8,0-49.2,0c-0.1,0-0.3,0-0.5,0c0,1.8,0,3.5,0,5.3c-0.8,0-1.5,0-2.3,0c-0.1,0-0.1-0.2-0.2-0.2
		c-0.8-0.8-1.7-1.6-2.5-2.4c-0.6-0.5-1.1-1.1-1.7-1.7c-0.1-0.1-0.2-0.1-0.3,0c-0.9,0.9-1.8,1.8-2.7,2.7c-0.5,0.5-0.9,1-1.4,1.5
		c-0.1,0.1-0.2,0.1-0.2,0.1c-0.9,0-1.7,0-2.6,0c0-1.8,0-3.5,0-5.3c-0.5,0-0.9,0-1.4,0c-0.7,0-1.3-0.3-1.9-0.6
		c-0.6-0.3-1-0.9-1.4-1.4c-0.2-0.2-0.2-0.5-0.3-0.7c-0.5-0.7-0.3-1.4-0.3-2.1c0-18.3,0-36.5,0-54.8c0-0.5,0.1-1,0.4-1.4
		c0.4-0.7,0.9-1.3,1.7-1.7c0.4-0.2,0.9-0.5,1.5-0.5c3.5,0,7,0,10.5-0.1c1.6,0,3.2,0,4.8,0c0.3,0,0.4-0.1,0.4-0.4c0-1.4,0-2.8,0-4.2
		c0-0.9,0-1.8,0.1-2.8c0.1-1.1,0.6-2,1.5-2.7c0.3-0.2,0.7-0.5,1-0.7c0.1-0.1,0.2,0,0.4,0c7.7,0,15.3,0,23,0c2.2,0,4.4,0,6.6,0
		c0.7,0,1.1,0.3,1.6,0.6c0.8,0.5,1.3,1.3,1.6,2.2c0.1,0.2,0.1,0.4,0.1,0.6c0,1.7,0.1,3.3,0.1,5C66.6,9.8,66.6,10.5,66.6,11.4z
		 M50.1,62c0.1-0.1,0.3-0.1,0.3-0.2c0.7-0.5,1.5-0.8,2.3-1c0.7-0.2,1.5-0.2,2.2-0.2c9,0,17.9,0,26.9,0c0.5,0,0.8-0.2,1-0.6
		c0.1-0.3,0.2-0.6,0.2-1c0-2.7,0-5.5,0-8.2c0-11.6,0-23.2,0-34.8c0-0.4-0.1-0.8-0.2-1.1c-0.2-0.5-0.7-0.7-1.2-0.7
		c-4.9,0-9.8,0-14.8,0c-0.1,0-0.2,0-0.4,0c0,0.2,0,0.3,0,0.4c0,3.9,0,7.8,0,11.7c0,1-0.3,1.9-0.9,2.7c-0.6,0.7-1.3,1.2-2.2,1.4
		c-0.6,0.2-1.2,0.2-1.9,0.2c-2.1,0-4.3,0-6.4,0c-0.4,0-0.6,0.1-0.9,0.3c-1.2,1.2-2.4,2.4-3.6,3.6c-0.4,0.4-0.6,0.8-0.6,1.4
		c0,8.5,0,17,0,25.5C50.1,61.7,50.1,61.8,50.1,62z M30.6,14.2c-0.1,0-0.2,0-0.4,0c-2.1,0-4.2,0-6.2,0c-2.8,0-5.6,0-8.4,0
		c-0.5,0-0.9,0.1-1.1,0.6c-0.2,0.4-0.2,0.9-0.2,1.3c0,13.9,0,27.9,0,41.8c0,0.6,0.1,1.1,0.1,1.7c0.1,0.6,0.5,0.9,1.1,0.9
		c9,0,18.1,0,27.1,0c0.4,0,0.8,0.1,1.2,0.2c0.4,0.1,0.9,0.1,1.3,0.2c0.3,0.1,0.6,0.1,0.9,0.2c0.4,0.2,0.8,0.5,1.2,0.7
		c0-0.2,0-0.3,0-0.5c0-8.6,0-17.1,0-25.7c0-0.2-0.1-0.3-0.1-0.5c-0.1-0.5-0.6-0.8-0.9-1.1c-0.9-0.9-1.8-1.8-2.8-2.7
		c-0.5-0.5-1-0.7-1.7-0.7c-2.3,0-4.5,0-6.8-0.1c-0.6,0-1.2-0.2-1.7-0.4c-0.8-0.4-1.5-1-1.9-1.8c-0.3-0.5-0.5-1-0.5-1.6
		c0-4,0-8-0.1-12.1c0-0.1,0-0.1,0-0.2C30.6,14.6,30.6,14.4,30.6,14.2z M48.6,32.8c0.1-0.1,0.2-0.2,0.2-0.3c1.3-1.3,2.5-2.6,3.8-3.9
		c0.6-0.6,1.2-0.9,2.1-0.9c2.6,0,5.1,0,7.7,0c0.7,0,1.2-0.5,1.2-1.2c0-7.3,0-14.7,0-22c0-0.7-0.6-1.3-1.3-1.3c-9.1,0-18.2,0-27.4,0
		c-0.8,0-1.5,0.6-1.4,1.4s0,1.6,0,2.4c0,6.5,0,12.9,0,19.4c0,0.7,0.5,1.3,1.3,1.3c2.6,0,5.2,0,7.8,0c0.6,0,1.1,0.2,1.5,0.5
		s0.7,0.7,1,1C46.3,30.4,47.4,31.6,48.6,32.8z M82.9,63.5c-0.1,0-0.2,0-0.3,0c-0.4,0-0.7,0.1-1.1,0.1c-8.2,0-16.5,0-24.7,0
		c-1.2,0-2.3,0-3.5,0.1c-0.3,0-0.6,0.1-0.8,0.2c-0.5,0.2-0.9,0.5-1.3,0.8c-0.8,0.6-1.1,1.5-1.1,2.5c0,1.4,0,2.7,0,4.1
		c0,0.1,0,0.2,0,0.4c0.2,0,0.3,0,0.5,0c10.1,0,20.2,0,30.2,0c0.4,0,0.9,0,1.3-0.1c0.3,0,0.7-0.5,0.8-0.8c0-0.5,0.1-0.9,0.1-1.4
		c0-0.4-0.2-0.4-0.4-0.4c-2.9,0-5.9,0-8.8,0c-4.8,0-9.5,0-14.3,0c-0.3,0-1.1-0.5-1.2-0.8c-0.1-0.5-0.2-1.1,0.2-1.6
		c0.3-0.3,0.5-0.5,1-0.5c2.6,0,5.3,0,7.9,0c0.7,0,1.3,0,2,0c0.5,0,1-0.1,1.5-0.1s1.1,0.1,1.6,0.1c0.7,0,1.3-0.1,2-0.1
		c2.7,0,5.4,0,8.1,0c0.3,0,0.4-0.1,0.4-0.4C82.9,65.1,82.9,64.3,82.9,63.5z M47.1,71.6c0-0.6,0-1.2,0-1.7c-0.1-1.1,0.2-2.3-0.2-3.4
		c-0.2-0.6-0.4-1.1-0.8-1.5c-0.6-0.7-1.4-1-2.3-1.2c-0.4-0.1-0.8-0.1-1.2-0.1c-3,0-6,0-9,0c-6.4,0-12.7,0-19.1,0c-0.1,0-0.2,0-0.3,0
		c0,0.9,0,1.7,0,2.6c0.1,0,0.2,0,0.3,0c7.3,0,14.5,0,21.8-0.1c0.4,0,0.8,0.1,1.2,0.1c0.7,0,1.3,0.4,1.4,1.1c0.1,0.4,0.1,0.9-0.3,1.3
		c-0.2,0.2-0.5,0.4-0.7,0.5c-0.5,0.1-1,0.1-1.5,0.1c-1.8,0-3.6,0-5.4,0c-0.1,0-0.2,0-0.2,0.1c0,0.8,0,1.6,0,2.4
		C36.2,71.6,41.7,71.6,47.1,71.6z M27.7,69.3c-2.7,0-5.3,0-8,0c0,2,0,3.9,0,5.9c0.1-0.1,0.2-0.3,0.4-0.4c0.8-0.8,1.7-1.7,2.5-2.5
		c0.9-0.8,1.5-0.8,2.2-0.1c0.7,0.6,1.3,1.3,2,2c0.3,0.3,0.6,0.6,0.9,0.9C27.7,73.1,27.7,71.2,27.7,69.3z M16.8,71.6
		c0-0.7,0-1.4,0-2.2c0-0.1-0.1-0.2-0.1-0.2c-0.3,0-0.7,0-1,0c-0.4,0-0.7,0-1.1,0c-0.2,0-0.4,0-0.3,0.3c0.1,0.3,0.1,0.7,0.1,1
		c0,0.4,0.4,1,0.7,1.1C15.6,71.8,16.2,71.7,16.8,71.6z"/>
	<path class="st0" d="M27,33.3c1.8,0,3.7,0,5.5,0c0.6,0,1.1,0.2,1.6,0.4c0.7,0.3,1.2,0.7,1.6,1.3c0.7,1,1,2.1,0.8,3.3
		c-0.2,1.3-1,2.2-2,2.8c-0.6,0.4-1.4,0.6-2.1,0.6c-3.5,0-7.1,0-10.6,0c-0.5,0-1,0-1.5-0.2c-0.8-0.3-1.6-0.7-2.2-1.4
		c-0.3-0.4-0.5-0.8-0.7-1.2c-0.1-0.1,0-0.3-0.1-0.5c-0.2-0.4-0.2-0.8-0.1-1.2s0.2-0.9,0.3-1.3c0.2-0.7,0.7-1.1,1.2-1.6
		c0.4-0.4,1-0.6,1.5-0.8c0.7-0.2,1.4-0.2,2.1-0.2C23.9,33.3,25.4,33.3,27,33.3z M26.9,38.8c1.8,0,3.7,0,5.5,0c0.5,0,0.9-0.2,1.1-0.7
		c0.5-1-0.2-1.8-1.1-1.9c-3.7,0-7.3,0-11,0c-0.3,0-0.6,0.1-0.9,0.3c-0.4,0.2-0.4,0.7-0.4,1.1c-0.1,0.6,0.7,1.2,1.2,1.2
		C23.2,38.7,25.1,38.8,26.9,38.8z"/>
	<path class="st0" d="M30.8,49.7c4,0,8,0,12,0c0.8,0,1.3,0.4,1.6,1.1c0.2,0.4-0.1,1.3-0.6,1.6c-0.3,0.2-0.7,0.3-1.1,0.3
		c-7.9,0-15.8,0-23.6,0.1c-0.5,0-1-0.1-1.5-0.4c-0.4-0.2-0.7-1.1-0.5-1.6c0.3-0.8,0.9-1,1.7-1C22.9,49.7,26.9,49.7,30.8,49.7z"/>
	<path class="st0" d="M30.8,44.3c4.1,0,8.1,0,12.2,0c0.7,0,1.2,0.3,1.5,0.9c0.2,0.4-0.1,1.3-0.4,1.5c-0.4,0.3-0.8,0.4-1.3,0.4
		c-8,0-16,0-24,0c-0.8,0-1.3-0.4-1.6-1.1c-0.2-0.5,0.3-1.3,0.8-1.5c0.4-0.2,0.7-0.2,1.1-0.2C22.9,44.3,26.9,44.3,30.8,44.3z"/>
	<path class="st0" d="M47.1,18.2c0-0.3,0-0.7,0-1c0-0.6,0.1-1.2,0.7-1.5c0.3-0.1,0.5-0.3,0.8-0.3c0.4,0,0.8-0.1,1.2-0.2
		c0.7-0.3,1.3-0.7,1.7-1.3c0.5-0.8,0.4-1.6,0.4-2.4c0-0.2-0.1-0.5-0.2-0.7c-0.3-0.5-0.6-1-1.1-1.4C49.8,8.9,49,8.7,48,8.9
		s-1.7,0.6-2.2,1.4c-0.3,0.5-0.5,1-0.5,1.5c0,0.6-0.2,1.1-0.7,1.5c-0.5,0.3-1.6,0.3-2-0.4c-0.3-0.6-0.3-1.1-0.2-1.8
		c0.1-0.2,0.1-0.4,0.1-0.6c0.1-0.3,0.1-0.5,0.3-0.8c0.3-0.5,0.6-1,1-1.5c0.4-0.6,0.9-1.1,1.6-1.4c0.5-0.3,1-0.5,1.5-0.7
		C47.2,6,47.6,5.9,48,5.9c0.7,0,1.5,0,2.2,0.1c0.5,0.1,0.9,0.4,1.4,0.6c0.6,0.3,1.1,0.7,1.6,1.2c0.5,0.6,1,1.1,1.2,1.9
		c0.4,0.9,0.6,1.9,0.6,2.9c0,0.5-0.2,1-0.3,1.5S54.3,15,54,15.5c-0.5,0.5-1,1.1-1.6,1.5c-0.5,0.4-1.1,0.7-1.7,1c-0.1,0-0.1,0-0.2,0
		c-0.2,0.1-0.4,0.2-0.4,0.5s0,0.7,0,1c0,0.7-0.4,1.2-1,1.5c-0.5,0.2-1.3,0-1.6-0.4s-0.4-0.8-0.4-1.3C47.1,18.9,47.1,18.6,47.1,18.2z
		"/>
	<path class="st0" d="M50.2,23.4c-0.1,0.8-0.4,1.4-1.1,1.7c-0.3,0.2-1,0-1.3-0.2c-0.6-0.5-0.7-1.1-0.7-1.8c0-0.8,0.8-1.6,1.6-1.5
		c0.5,0,0.9,0.3,1.2,0.8C50,22.7,50.1,23.1,50.2,23.4z"/>
</g>
</svg>
