<?xml version="1.0" encoding="utf-8"?>
<!-- Generator: Adobe Illustrator 21.0.0, SVG Export Plug-In . SVG Version: 6.00 Build 0)  -->
<svg version="1.1" id="Layer_1" xmlns="http://www.w3.org/2000/svg" xmlns:xlink="http://www.w3.org/1999/xlink" x="0px" y="0px"
	 viewBox="0 0 100 80" style="enable-background:new 0 0 100 80;" xml:space="preserve">
<style type="text/css">
	.st0{fill:#E2CA84;}
</style>
<g>
	<path class="st0" d="M38.4,15.6c0-3.2,0-6.2,0-9.2c-0.1-3,2.2-5.9,5.7-5.8c5.1,0.2,10.3,0,15.4,0.1c2.8,0,5.1,2.3,5.1,5.2
		c0,3.1,0,6.2,0,9.3c0,0.1,0,0.2,0.1,0.5c0.4,0,0.9,0,1.4,0c7.7,0,15.4,0,23.1,0c4.5,0,9.3,4.1,9.2,9.2c-0.1,15.4,0,30.7,0,46.1
		c0,4.2-4.2,8.4-8.4,8.4c-25.6,0-51.3,0-76.9,0c-4.3,0-8.4-3.8-8.4-8.5c0-15.6-0.1-31.1,0-46.7c0-3.6,3-7,6.3-7.9
		c1.3-0.4,2.8-0.5,4.2-0.5c7.2,0,14.4,0,21.6,0C37.2,15.6,37.7,15.6,38.4,15.6z M51.4,75.5c12.3,0,24.6,0,36.9,0
		c3.9,0,6.3-2.5,6.3-6.3c0-14.5,0-29.1,0-43.6c0-4.2-2.4-6.1-6-6.2c-8.4-0.1-16.9-0.1-25.3,0c-0.5,0-1.2,0.4-1.6,0.8
		c-2.1,2.4-4.2,4.9-6.2,7.4c-1.8,2.2-5.9,2.5-8,0c-1.7-2-3.3-4.1-5-6.1c-0.8-0.9-1.2-2.2-2.8-2.2c-8.4,0-16.9-0.1-25.3,0
		c-3.6,0.1-6,2-6,6.2c0,14.6,0,29.2,0,43.8c0,3.5,2.4,6.2,6.2,6.2C26.8,75.5,39.1,75.5,51.4,75.5z M60.8,9.9c0-1.1,0-2.1,0-3.2
		c-0.1-1.6-0.7-2.3-2.3-2.3c-4.7,0-9.4,0-14,0c-1.6,0-2.3,0.7-2.3,2.3c0,1.3,0.1,2.5,0,3.8c-0.2,2.6,0.4,5,2.2,7
		c2.1,2.3,3.9,4.8,5.9,7.2c0.9,1.1,2.1,0.9,2.9-0.2c0.9-1.2,1.9-2.4,2.9-3.6c1.2-1.6,2.5-3.1,3.7-4.7C61.1,14.4,60.9,12.1,60.8,9.9z
		"/>
	<path class="st0" d="M40.7,45.9c1,0.5,2,1.1,2.9,1.5c2.6,1.2,4.3,3.1,5.2,5.7c0.8,2.3,1.7,4.6,2.1,7c0.5,2.8-0.4,4.4-3.6,4.4
		c-10.1,0.2-20.1,0.1-30.2,0c-2.5,0-3.6-0.8-4-2.6c-0.1-0.5,0-1,0.1-1.5c0.9-2.9,1.6-6,2.8-8.8c1.2-2.9,3.8-4.3,6.8-5.4
		c-0.5-1.3-0.9-2.6-1.4-3.8c-1.7-4.3-1.1-8.4,1.9-11.8c3.4-3.9,9.6-5,14.3-2.1c3.9,2.5,5.7,6,5.5,10.6C43,41.5,42.1,43.8,40.7,45.9z
		 M17.1,60.6c10,0,19.9,0,30,0c-0.7-2.1-1.2-4.2-2-6.1c-1.2-3.1-3.9-4.3-7-4.9c-0.3-0.1-0.8,0-1.1,0.1c-3.4,2.2-6.9,2.1-10.4,0.1
		c-0.3-0.2-0.8-0.3-1.1-0.2c-3,0.8-5.7,2-6.8,5.3c-0.4,1.2-0.7,2.4-1,3.6C17.5,59.1,17.3,59.8,17.1,60.6z M39.2,38.6
		c-0.1-0.8-0.1-1.4-0.2-2c-0.9-3.9-4.6-6.4-8.7-5.7c-3.3,0.6-6.3,4.2-6,7.4c0.2,2.4,1.1,4.6,2.7,6.5c2.3,2.6,5.1,3.3,7.4,1.8
		C37.4,44.7,39,42,39.2,38.6z"/>
	<path class="st0" d="M70.4,41.9c-4.9,0-9.9,0-14.8,0c-2,0-2.9-1.2-2-2.7c0.3-0.6,1.4-1,2.1-1c2.9-0.1,5.9,0,8.8,0
		c6.8,0,13.7,0,20.5,0.1c0.7,0,1.7,0.5,2,1.1c0.4,0.7,0.2,1.8-0.7,2.3c-0.4,0.2-0.8,0.3-1.2,0.3C80.2,41.9,75.3,41.9,70.4,41.9z"/>
	<path class="st0" d="M61.4,45.7c2,0,4,0,6,0c1.4,0,1.9,0.5,1.9,1.8c0,1.2-0.7,2-1.9,2c-3.9,0-7.8,0-11.7,0c-1.3,0-2.4-0.7-2.3-1.8
		c0-0.6,0.6-1.3,1.1-1.8c0.2-0.2,0.7-0.2,1-0.2C57.4,45.7,59.4,45.7,61.4,45.7z"/>
	<path class="st0" d="M77.2,49.6c-0.6-0.1-1.2-0.2-1.9-0.3c-1.3-0.2-1.4-1.2-1.3-2.2s0.8-1.4,1.8-1.4c0.9,0,1.9,0,2.8,0
		c1,0,1.7,0.3,1.8,1.3c0.2,1.3-0.1,1.9-1.3,2.3C78.6,49.5,77.9,49.5,77.2,49.6z"/>
	<path class="st0" d="M51.5,7.9c1.2,0.1,2.3,0.2,3.4,0.3c1.1,0.2,1.5,1.1,1.4,2c-0.1,0.8-0.5,1.7-1.7,1.6c-2-0.1-4-0.1-6,0
		c-1.2,0-1.7-0.8-1.7-1.6c0-0.6,0.6-1.6,1.1-1.8C49,8,50.3,8.1,51.5,7.9z"/>
</g>
</svg>
